<svg width="1020" height="722" viewBox="0 0 1020 722" fill="none" xmlns="http://www.w3.org/2000/svg">
<rect width="1020" height="722" fill="none"/>
<path d="M990.9 169.775C1001.3 173.475 1009.7 185.475 1009.7 196.575L1009.3 516.075C1009.3 527.075 1000.8 539.075 990.4 542.775L523.3 708.375C512.9 712.075 496 712.075 485.6 708.275L18.9 541.275C8.5 537.675 0 525.675 0 514.675L0.4 195.175C0.4 184.175 8.9 172.175 19.3 168.475L486.5 2.775C496.9 -0.925 513.8 -0.925 524.2 2.775L990.9 169.775V169.775Z" transform="translate(5 4.8764)" fill="white"/>
<path d="M13.6 165.45L12.434 162.147L12.4249 162.151L13.6 165.45ZM0.4 184.15L3.9024 184.155V184.15H0.4ZM0 492.25L-3.5024 492.245V492.25H0ZM13.2 510.95L14.3751 507.651L14.3751 507.651L13.2 510.95ZM475.9 675.75L474.725 679.049L474.725 679.049L475.9 675.75ZM502.3 675.75L501.134 672.447L501.125 672.451L502.3 675.75ZM965.4 512.25L966.566 515.553L966.575 515.549L965.4 512.25ZM978.6 493.55L975.098 493.545V493.55H978.6ZM979 185.45L982.502 185.455V185.45H979ZM965.8 166.75L964.625 170.049L964.625 170.049L965.8 166.75ZM503.1 1.95L504.275 -1.34937L504.275 -1.34938L503.1 1.95ZM476.7 1.95L477.866 5.25262L477.875 5.24938L476.7 1.95ZM12.4249 162.151C7.96591 163.739 4.11844 167.012 1.39969 170.87C-1.31861 174.727 -3.1024 179.442 -3.1024 184.15H3.9024C3.9024 181.158 5.06861 177.823 7.12531 174.905C9.18156 171.988 11.9341 169.761 14.7751 168.749L12.4249 162.151ZM-3.1024 184.145L-3.5024 492.245L3.5024 492.255L3.9024 184.155L-3.1024 184.145ZM-3.5024 492.25C-3.5024 496.958 -1.71861 501.673 0.999691 505.53C3.71844 509.388 7.56591 512.661 12.0249 514.249L14.3751 507.651C11.5341 506.639 8.78156 504.412 6.72531 501.495C4.6686 498.577 3.5024 495.242 3.5024 492.25H-3.5024ZM12.0249 514.249L474.725 679.049L477.075 672.451L14.3751 507.651L12.0249 514.249ZM474.725 679.049C478.865 680.524 484.065 681.202 489.1 681.202C494.135 681.202 499.335 680.524 503.475 679.049L501.125 672.451C497.965 673.576 493.615 674.198 489.1 674.198C484.585 674.198 480.235 673.576 477.075 672.451L474.725 679.049ZM503.466 679.053L966.566 515.553L964.234 508.947L501.134 672.447L503.466 679.053ZM966.575 515.549C971.034 513.961 974.882 510.688 977.6 506.83C980.319 502.973 982.102 498.258 982.102 493.55H975.098C975.098 496.542 973.931 499.877 971.875 502.795C969.818 505.712 967.066 507.939 964.225 508.951L966.575 515.549ZM982.102 493.555L982.502 185.455L975.498 185.445L975.098 493.545L982.102 493.555ZM982.502 185.45C982.502 180.742 980.719 176.027 978 172.17C975.282 168.312 971.434 165.039 966.975 163.451L964.625 170.049C967.466 171.061 970.218 173.288 972.275 176.205C974.331 179.123 975.498 182.458 975.498 185.45H982.502ZM966.975 163.451L504.275 -1.34937L501.925 5.24937L964.625 170.049L966.975 163.451ZM504.275 -1.34938C500.135 -2.82388 494.935 -3.5024 489.9 -3.5024C484.865 -3.5024 479.665 -2.82388 475.525 -1.34938L477.875 5.24938C481.035 4.12388 485.385 3.5024 489.9 3.5024C494.415 3.5024 498.765 4.12388 501.925 5.24938L504.275 -1.34938ZM475.534 -1.35261L12.434 162.147L14.766 168.753L477.866 5.25261L475.534 -1.35261Z" transform="translate(20.4 21.6014)" fill="#222222"/>
<mask id="path-3-inside-1" fill="white">
<path d="M994.6 179.451C1013.6 186.951 1009.7 209.951 1009.7 226.051C1009.7 252.451 1009.6 278.751 1009.6 305.151C1009.5 366.151 1009.4 427.251 1009.4 488.251V513.151C1009.4 518.751 1009.8 524.051 1007.5 529.351C1001.8 542.351 988.2 544.851 976.2 549.151C929.7 565.651 883.3 582.151 836.8 598.551C775.1 620.451 713.5 642.251 651.8 664.151C612.3 678.151 572.7 692.251 533.2 706.251C519.2 711.251 504.6 712.951 490.3 707.751C478.8 703.651 467.3 699.551 455.7 695.351C403.3 676.751 351 657.951 298.7 639.251C238.5 617.751 178.2 596.151 118 574.651C87.1 563.651 56.3 552.551 25.4 541.551C7.5 535.151 10 515.651 10 500.751C10 475.851 10.1 450.951 10.1 426.051L10.4 239.951C10.4 226.651 10.4 213.351 10.5 200.151C10.5 182.351 26.4 177.951 39.6 173.251C84.1 157.451 128.7 141.651 173.2 125.851C235 103.951 296.8 82.0514 358.6 60.0514C400.3 45.2514 442.1 30.4514 483.8 15.6514C498.3 10.4514 513.2 7.25139 528.5 12.6514C538.5 16.2514 548.5 19.7514 558.5 23.3514C609.2 41.6514 660 59.7514 710.8 77.9514C771.6 99.6514 832.3 121.451 893.1 143.151C926.5 155.151 960 167.051 993.4 179.051C993.8 179.151 994.2 179.351 994.6 179.451C1000.7 181.651 1003.3 171.951 997.3 169.851C969.1 159.751 941 149.751 912.8 139.651C853.2 118.251 793.6 96.9514 734 75.6514L572.9 18.0514C559.9 13.4514 546.9 8.75139 533.9 4.15139C518.8 -1.24861 502.2 -1.44861 487.1 3.95139C450.7 16.8514 414.3 29.7514 378 42.6514C316.7 64.3514 255.3 86.1514 194 107.851C145.1 125.151 96.2 142.551 47.3 159.851C39.2 162.751 31.1 165.651 22.9 168.451C9.3 173.251 0.3 187.251 0.3 201.451V218.251C0.3 275.951 0.2 333.651 0.2 391.351C0.1 434.051 0.1 476.651 0 519.351C0 533.351 10 546.651 23.1 551.251C26.3 552.451 29.6 553.551 32.8 554.751L82.3 572.451C139.1 592.751 195.9 613.051 252.6 633.351C310 653.851 367.5 674.451 424.9 694.951L476.8 713.551C480.6 714.851 484.3 716.251 488.1 717.551C501 722.151 516.7 722.351 529.7 718.051C558.1 708.651 586.1 698.051 614.2 688.051C673.8 666.851 733.5 645.751 793.1 624.551C846.9 605.451 900.6 586.451 954.4 567.351L993.4 553.551C1000.4 551.051 1006.6 547.651 1011.5 541.651C1017.6 534.051 1019.4 525.451 1019.4 516.151C1019.5 465.651 1019.5 415.151 1019.6 364.651C1019.7 312.451 1019.7 260.251 1019.8 208.151V201.551C1019.8 187.551 1010 174.851 997.3 169.851C991.3 167.451 988.7 177.151 994.6 179.451V179.451Z"/>
</mask>
<path d="M994.6 179.451C1013.6 186.951 1009.7 209.951 1009.7 226.051C1009.7 252.451 1009.6 278.751 1009.6 305.151C1009.5 366.151 1009.4 427.251 1009.4 488.251V513.151C1009.4 518.751 1009.8 524.051 1007.5 529.351C1001.8 542.351 988.2 544.851 976.2 549.151C929.7 565.651 883.3 582.151 836.8 598.551C775.1 620.451 713.5 642.251 651.8 664.151C612.3 678.151 572.7 692.251 533.2 706.251C519.2 711.251 504.6 712.951 490.3 707.751C478.8 703.651 467.3 699.551 455.7 695.351C403.3 676.751 351 657.951 298.7 639.251C238.5 617.751 178.2 596.151 118 574.651C87.1 563.651 56.3 552.551 25.4 541.551C7.5 535.151 10 515.651 10 500.751C10 475.851 10.1 450.951 10.1 426.051L10.4 239.951C10.4 226.651 10.4 213.351 10.5 200.151C10.5 182.351 26.4 177.951 39.6 173.251C84.1 157.451 128.7 141.651 173.2 125.851C235 103.951 296.8 82.0514 358.6 60.0514C400.3 45.2514 442.1 30.4514 483.8 15.6514C498.3 10.4514 513.2 7.25139 528.5 12.6514C538.5 16.2514 548.5 19.7514 558.5 23.3514C609.2 41.6514 660 59.7514 710.8 77.9514C771.6 99.6514 832.3 121.451 893.1 143.151C926.5 155.151 960 167.051 993.4 179.051C993.8 179.151 994.2 179.351 994.6 179.451C1000.7 181.651 1003.3 171.951 997.3 169.851C969.1 159.751 941 149.751 912.8 139.651C853.2 118.251 793.6 96.9514 734 75.6514L572.9 18.0514C559.9 13.4514 546.9 8.75139 533.9 4.15139C518.8 -1.24861 502.2 -1.44861 487.1 3.95139C450.7 16.8514 414.3 29.7514 378 42.6514C316.7 64.3514 255.3 86.1514 194 107.851C145.1 125.151 96.2 142.551 47.3 159.851C39.2 162.751 31.1 165.651 22.9 168.451C9.3 173.251 0.3 187.251 0.3 201.451V218.251C0.3 275.951 0.2 333.651 0.2 391.351C0.1 434.051 0.1 476.651 0 519.351C0 533.351 10 546.651 23.1 551.251C26.3 552.451 29.6 553.551 32.8 554.751L82.3 572.451C139.1 592.751 195.9 613.051 252.6 633.351C310 653.851 367.5 674.451 424.9 694.951L476.8 713.551C480.6 714.851 484.3 716.251 488.1 717.551C501 722.151 516.7 722.351 529.7 718.051C558.1 708.651 586.1 698.051 614.2 688.051C673.8 666.851 733.5 645.751 793.1 624.551C846.9 605.451 900.6 586.451 954.4 567.351L993.4 553.551C1000.4 551.051 1006.6 547.651 1011.5 541.651C1017.6 534.051 1019.4 525.451 1019.4 516.151C1019.5 465.651 1019.5 415.151 1019.6 364.651C1019.7 312.451 1019.7 260.251 1019.8 208.151V201.551C1019.8 187.551 1010 174.851 997.3 169.851C991.3 167.451 988.7 177.151 994.6 179.451V179.451Z" mask="url(#path-3-inside-1)"/>
<path d="M64.6 30.1L55.1 24.9L45.5 29.8L47.5 19.2L39.9 11.5L50.6 10.2L55.6 0.600012L60.2 10.3L70.9 12.1L63 19.5L64.6 30.1ZM144.9 29.5L135.4 24.3L125.7 29.2L127.7 18.6L120.1 10.9L130.8 9.60001L135.8 -2.44141e-05L140.4 9.69999L151.1 11.5L143.2 18.9L144.9 29.5ZM105 29.5L95.5 24.3L85.8 29.2L87.8 18.6L80.2 10.9L91 9.60001L95.9 -2.44141e-05L100.6 9.69999L111.3 11.5L103.4 18.9L105 29.5ZM24.8 29.8L15.3 24.6L5.59999 29.4L7.59999 18.8L1.2207e-05 11.2L10.7 9.80002L15.7 0.199988L20.3 9.99998L31 11.7L23.1 19.1L24.8 29.8Z" transform="translate(434.2 605.551)" fill="#AA1111" stroke="#222222" stroke-width="1.0007"/>
<path d="M12.064 17.264C9.88 17.3333 8.19867 18.1653 7.02 19.76C5.876 21.3547 5.304 24.1107 5.304 28.028C5.304 29.3107 5.42533 30.212 5.668 30.732C5.91067 31.2173 6.032 31.4947 6.032 31.564C4.16 31.564 2.756 31.1827 1.82 30.42C0.918667 29.6227 0.468 28.3227 0.468 26.52C0.468 24.0587 1.07467 21.8227 2.288 19.812C3.50133 17.7667 5.42533 16.12 8.06 14.872C10.7293 13.624 14.1093 13 18.2 13C19.032 13 20.1413 13.0867 21.528 13.26C24.024 13.5027 25.792 13.624 26.832 13.624C28.6693 13.624 30.2293 13.416 31.512 13C31.408 13.312 31.2173 14.0053 30.94 15.08C30.6627 16.12 30.16 17.0213 29.432 17.784C28.7387 18.512 27.7853 18.9973 26.572 19.24C24.5267 19.24 22.1 18.9107 19.292 18.252L17.108 28.6H24.7L23.868 32.448H16.276L12.064 52H4.576L12.064 17.264ZM30.1072 52.312C28.1312 52.312 26.4845 51.636 25.1672 50.284C23.8499 48.932 23.1912 46.8173 23.1912 43.94C23.1912 41.3747 23.6939 38.688 24.6992 35.88C25.7392 33.0373 27.2645 30.6453 29.2752 28.704C31.3205 26.728 33.7472 25.74 36.5552 25.74C37.9765 25.74 39.0339 25.9827 39.7272 26.468C40.4205 26.9533 40.7672 27.5947 40.7672 28.392V28.756L41.3392 26H48.8272L45.0832 43.68C44.9445 44.2 44.8752 44.7547 44.8752 45.344C44.8752 46.8347 45.5859 47.58 47.0072 47.58C47.9779 47.58 48.8099 47.1293 49.5032 46.228C50.2312 45.3267 50.8032 44.148 51.2192 42.692H53.4032C52.1205 46.436 50.5259 48.984 48.6192 50.336C46.7472 51.6533 44.8579 52.312 42.9512 52.312C41.4952 52.312 40.3165 51.9133 39.4152 51.116C38.5485 50.284 38.0285 49.088 37.8552 47.528C36.8499 48.9493 35.7232 50.1107 34.4752 51.012C33.2619 51.8787 31.8059 52.312 30.1072 52.312ZM33.4872 47.268C34.3539 47.268 35.2032 46.8693 36.0352 46.072C36.9019 45.24 37.4912 44.1133 37.8032 42.692L40.2992 30.94C40.2992 30.4893 40.1259 30.056 39.7792 29.64C39.4325 29.1893 38.8952 28.964 38.1672 28.964C36.7805 28.964 35.5325 29.7787 34.4232 31.408C33.3139 33.0027 32.4472 34.944 31.8232 37.232C31.1992 39.4853 30.8872 41.4787 30.8872 43.212C30.8872 44.9453 31.1299 46.0547 31.6152 46.54C32.1352 47.0253 32.7592 47.268 33.4872 47.268ZM82.8543 52.312C80.7396 52.312 79.1796 51.7573 78.1743 50.648C77.2036 49.504 76.7183 48.1 76.7183 46.436C76.7183 45.708 76.8049 44.8933 76.9783 43.992C77.1516 43.056 77.3249 42.1547 77.4983 41.288C77.7063 40.4213 77.8449 39.8667 77.9143 39.624C78.1916 38.4107 78.4516 37.2147 78.6943 36.036C78.9369 34.8573 79.0583 33.904 79.0583 33.176C79.0583 31.408 78.4343 30.524 77.1863 30.524C76.2849 30.524 75.4876 30.9747 74.7943 31.876C74.1009 32.7427 73.5463 33.8867 73.1303 35.308L69.5943 52H62.1063L65.9023 34.06C66.0063 33.644 66.0583 33.2107 66.0583 32.76C66.0583 31.2347 65.5383 30.472 64.4983 30.472C63.5276 30.472 62.6783 30.9227 61.9503 31.824C61.2569 32.6907 60.7023 33.852 60.2863 35.308L56.7503 52H49.2623L54.7743 26H62.2623L61.6903 28.704C63.4583 26.728 65.5729 25.74 68.0343 25.74C71.0849 25.74 72.8703 27.2307 73.3903 30.212C75.2969 27.2653 77.7063 25.792 80.6183 25.792C82.3863 25.792 83.7903 26.2773 84.8303 27.248C85.8703 28.2187 86.3903 29.692 86.3903 31.668C86.3903 32.6733 86.2689 33.8 86.0263 35.048C85.7836 36.2613 85.4369 37.752 84.9863 39.52C84.7089 40.5947 84.4489 41.652 84.2063 42.692C83.9983 43.6973 83.8943 44.4947 83.8943 45.084C83.8943 45.7773 84.0503 46.3147 84.3623 46.696C84.6743 47.0773 85.2116 47.268 85.9743 47.268C87.0143 47.268 87.8463 46.904 88.4703 46.176C89.0943 45.4133 89.7183 44.252 90.3423 42.692H92.5263C91.2436 46.5053 89.7529 49.0707 88.0543 50.388C86.3903 51.6707 84.6569 52.312 82.8543 52.312ZM99.0238 23.192C97.8798 23.192 96.9092 22.7933 96.1118 21.996C95.3145 21.1987 94.9158 20.228 94.9158 19.084C94.9158 17.94 95.3145 16.9693 96.1118 16.172C96.9092 15.34 97.8798 14.924 99.0238 14.924C100.168 14.924 101.139 15.34 101.936 16.172C102.768 16.9693 103.184 17.94 103.184 19.084C103.184 20.228 102.768 21.1987 101.936 21.996C101.139 22.7933 100.168 23.192 99.0238 23.192ZM95.4878 52.312C93.8238 52.312 92.4718 51.792 91.4318 50.752C90.4265 49.712 89.9238 48.152 89.9238 46.072C89.9238 45.2053 90.0625 44.0787 90.3398 42.692L93.8758 26H101.364L97.6198 43.68C97.4812 44.2 97.4118 44.7547 97.4118 45.344C97.4118 46.0373 97.5678 46.54 97.8798 46.852C98.2265 47.1293 98.7812 47.268 99.5438 47.268C100.549 47.268 101.485 46.852 102.352 46.02C103.219 45.1533 103.843 44.044 104.224 42.692H106.408C105.125 46.436 103.479 48.984 101.468 50.336C99.4572 51.6533 97.4638 52.312 95.4878 52.312ZM109.351 52.312C107.687 52.312 106.335 51.792 105.295 50.752C104.29 49.712 103.787 48.152 103.787 46.072C103.787 45.2053 103.926 44.0787 104.203 42.692L109.767 16.64L117.463 15.6L111.483 43.68C111.344 44.2 111.275 44.7547 111.275 45.344C111.275 46.0373 111.431 46.54 111.743 46.852C112.09 47.1293 112.644 47.268 113.407 47.268C114.412 47.268 115.348 46.852 116.215 46.02C117.082 45.1533 117.706 44.044 118.087 42.692H120.271C118.988 46.436 117.342 48.984 115.331 50.336C113.32 51.6533 111.327 52.312 109.351 52.312ZM126.178 65C124.549 65 123.11 64.4627 121.862 63.388C120.649 62.348 120.042 61.0133 120.042 59.384C120.042 57.8587 120.424 56.6107 121.186 55.64C121.949 54.6693 122.937 53.9067 124.15 53.352C125.364 52.7973 126.993 52.208 129.038 51.584L129.558 49.296C127.79 51.3067 125.676 52.312 123.214 52.312C121.55 52.312 120.198 51.792 119.158 50.752C118.153 49.712 117.65 48.152 117.65 46.072C117.65 45.2053 117.789 44.0787 118.066 42.692L121.602 26H129.09L125.346 43.68C125.242 44.096 125.19 44.5293 125.19 44.98C125.19 46.5053 125.71 47.268 126.75 47.268C127.721 47.268 128.553 46.8693 129.246 46.072C129.94 45.24 130.494 44.1133 130.91 42.692L134.446 26H141.986L135.642 56.16C134.949 59.488 133.718 61.7933 131.95 63.076C130.217 64.3587 128.293 65 126.178 65ZM124.982 60.372C125.606 60.372 126.196 60.0427 126.75 59.384C127.305 58.76 127.738 57.7373 128.05 56.316L128.674 53.248C126.837 53.872 125.416 54.6 124.41 55.432C123.405 56.264 122.902 57.3387 122.902 58.656C122.902 59.072 123.11 59.4533 123.526 59.8C123.942 60.1813 124.428 60.372 124.982 60.372ZM168.182 52.312C165.27 52.312 162.982 51.48 161.318 49.816C159.688 48.152 158.874 45.5 158.874 41.86C158.874 38.7747 159.428 35.308 160.538 31.46C161.647 27.612 163.259 24.3187 165.374 21.58C167.523 18.8413 170.054 17.472 172.966 17.472C174.006 17.472 174.907 17.6107 175.67 17.888C174.144 18.7893 172.671 20.644 171.25 23.452C169.863 26.26 168.736 29.3973 167.87 32.864C167.003 36.3307 166.57 39.3987 166.57 42.068C166.57 43.94 166.812 45.4133 167.298 46.488C167.783 47.5627 168.546 48.1 169.586 48.1C171.284 48.1 172.966 46.8867 174.63 44.46C176.328 41.9987 177.715 38.9133 178.79 35.204C179.899 31.4947 180.454 27.924 180.454 24.492C180.454 22.3427 180.263 20.6267 179.882 19.344C179.535 18.0267 178.876 17.0387 177.906 16.38C176.935 15.7213 175.566 15.392 173.798 15.392C171.128 15.392 168.65 15.9467 166.362 17.056C164.074 18.1307 162.236 19.6907 160.85 21.736C159.498 23.7467 158.822 26.0867 158.822 28.756C158.822 29.692 158.908 30.3853 159.082 30.836C159.255 31.252 159.342 31.4947 159.342 31.564C157.608 31.564 156.291 31.2173 155.39 30.524C154.523 29.8307 154.09 28.7213 154.09 27.196C154.09 24.804 155.06 22.516 157.002 20.332C158.978 18.148 161.578 16.38 164.802 15.028C168.06 13.676 171.475 13 175.046 13C179.379 13 182.516 14.1787 184.458 16.536C186.399 18.8933 187.37 22.152 187.37 26.312C187.37 30.0213 186.676 33.8867 185.29 37.908C183.903 41.9293 181.754 45.344 178.842 48.152C175.964 50.9253 172.411 52.312 168.182 52.312ZM192.988 52.312C191.324 52.312 189.972 51.792 188.932 50.752C187.927 49.712 187.424 48.152 187.424 46.072C187.424 45.2053 187.563 44.0787 187.84 42.692L191.376 26H198.864L195.12 43.68C195.016 44.096 194.964 44.5293 194.964 44.98C194.964 46.5053 195.484 47.268 196.524 47.268C197.495 47.268 198.327 46.8693 199.02 46.072C199.713 45.24 200.268 44.1133 200.684 42.692L204.22 26H211.708L207.964 43.68C207.791 44.5467 207.704 45.1707 207.704 45.552C207.704 46.696 208.293 47.268 209.472 47.268C211.067 47.268 212.54 46.2627 213.892 44.252C215.279 42.2413 216.388 39.8493 217.22 37.076C218.052 34.3027 218.468 31.9107 218.468 29.9C218.399 30.0733 218.173 30.212 217.792 30.316C217.411 30.3853 217.081 30.42 216.804 30.42C216.215 30.42 215.747 30.1427 215.4 29.588C215.088 29.0333 214.932 28.4267 214.932 27.768C214.932 26.936 215.192 26.26 215.712 25.74C216.267 25.22 217.081 24.96 218.156 24.96C219.3 24.96 220.132 25.3933 220.652 26.26C221.172 27.092 221.432 28.1667 221.432 29.484C221.432 32.604 220.895 35.9493 219.82 39.52C218.745 43.056 217.099 46.072 214.88 48.568C212.661 51.064 209.905 52.312 206.612 52.312C204.913 52.312 203.527 51.948 202.452 51.22C201.377 50.492 200.684 49.4 200.372 47.944C198.431 50.856 195.969 52.312 192.988 52.312ZM240.991 52.312C238.876 52.312 237.316 51.7573 236.311 50.648C235.34 49.504 234.855 48.1 234.855 46.436C234.855 45.708 234.941 44.8933 235.115 43.992C235.288 43.056 235.461 42.1547 235.635 41.288C235.843 40.4213 235.981 39.8667 236.051 39.624C236.328 38.4107 236.588 37.2147 236.831 36.036C237.073 34.8573 237.195 33.904 237.195 33.176C237.195 31.408 236.571 30.524 235.323 30.524C234.421 30.524 233.624 30.9747 232.931 31.876C232.237 32.7427 231.683 33.8867 231.267 35.308L227.731 52H220.243L225.755 26H233.243L232.671 28.704C234.404 26.7627 236.432 25.792 238.755 25.792C240.523 25.792 241.927 26.2773 242.967 27.248C244.007 28.2187 244.527 29.692 244.527 31.668C244.527 32.6733 244.405 33.8 244.163 35.048C243.92 36.2613 243.573 37.752 243.123 39.52C242.845 40.5947 242.585 41.652 242.343 42.692C242.135 43.6973 242.031 44.4947 242.031 45.084C242.031 45.7773 242.187 46.3147 242.499 46.696C242.811 47.0773 243.348 47.268 244.111 47.268C245.151 47.268 245.983 46.904 246.607 46.176C247.231 45.4133 247.855 44.252 248.479 42.692H250.663C249.38 46.5053 247.889 49.0707 246.191 50.388C244.527 51.6707 242.793 52.312 240.991 52.312ZM255.909 52.312C253.343 52.312 251.35 51.6533 249.929 50.336C248.507 48.984 247.797 46.8867 247.797 44.044C247.797 41.652 248.265 39.0173 249.201 36.14C250.137 33.2627 251.662 30.784 253.777 28.704C255.891 26.5893 258.578 25.532 261.837 25.532C265.65 25.532 267.557 27.196 267.557 30.524C267.557 32.4653 267.002 34.2507 265.893 35.88C264.783 37.5093 263.31 38.8267 261.473 39.832C259.635 40.8027 257.677 41.3573 255.597 41.496C255.527 42.536 255.493 43.2293 255.493 43.576C255.493 45.2747 255.787 46.436 256.377 47.06C256.966 47.6493 257.919 47.944 259.237 47.944C261.109 47.944 262.703 47.5107 264.021 46.644C265.373 45.7773 266.846 44.46 268.441 42.692H270.209C266.361 49.1053 261.594 52.312 255.909 52.312ZM256.013 39C257.295 38.9307 258.509 38.48 259.653 37.648C260.831 36.816 261.767 35.7587 262.461 34.476C263.189 33.1933 263.553 31.8413 263.553 30.42C263.553 28.9987 263.119 28.288 262.253 28.288C261.005 28.288 259.774 29.38 258.561 31.564C257.382 33.748 256.533 36.2267 256.013 39ZM274.67 52.312C272.694 52.312 271.047 51.636 269.73 50.284C268.412 48.932 267.754 46.8173 267.754 43.94C267.754 41.3747 268.256 38.688 269.262 35.88C270.302 33.0373 271.827 30.6453 273.838 28.704C275.883 26.728 278.31 25.74 281.118 25.74C282.539 25.74 283.596 25.9827 284.29 26.468C284.983 26.9533 285.33 27.5947 285.33 28.392V28.6L287.878 16.64L295.574 15.6L289.594 43.68C289.455 44.2 289.386 44.7027 289.386 45.188C289.386 46.5747 290.096 47.268 291.518 47.268C292.142 47.268 292.696 47.164 293.182 46.956C293.043 48.6893 292.419 50.024 291.31 50.96C290.235 51.8613 288.952 52.312 287.462 52.312C286.075 52.312 284.896 51.9653 283.926 51.272C282.99 50.544 282.366 49.452 282.054 47.996C279.974 50.8733 277.512 52.312 274.67 52.312ZM278.05 47.268C278.812 47.268 279.575 46.9387 280.338 46.28C281.135 45.6213 281.724 44.7027 282.106 43.524L282.314 42.692L284.862 30.784C284.55 29.5707 283.839 28.964 282.73 28.964C281.343 28.964 280.095 29.7787 278.986 31.408C277.876 33.0027 277.01 34.944 276.386 37.232C275.762 39.4853 275.45 41.4787 275.45 43.212C275.45 44.9453 275.692 46.0547 276.178 46.54C276.698 47.0253 277.322 47.268 278.05 47.268ZM317.174 52.936C314.99 52.936 313.066 52.5547 311.402 51.792C309.738 51.0293 308.455 49.972 307.554 48.62C306.652 47.2333 306.202 45.6387 306.202 43.836C306.202 42.3107 306.514 40.924 307.138 39.676C307.796 38.428 308.663 37.44 309.738 36.712C310.847 35.984 312.06 35.62 313.378 35.62C314.591 35.62 315.614 35.932 316.446 36.556C317.278 37.1453 317.798 37.9773 318.006 39.052C316.203 39.052 314.764 39.5373 313.69 40.508C312.615 41.444 312.078 42.7267 312.078 44.356C312.078 45.8467 312.528 47.0427 313.43 47.944C314.331 48.8453 315.527 49.296 317.018 49.296C318.855 49.296 320.363 48.6893 321.542 47.476C322.755 46.228 323.362 44.668 323.362 42.796C323.362 41.1667 322.911 39.624 322.01 38.168C321.108 36.712 319.756 34.944 317.954 32.864C316.082 30.7147 314.66 28.8773 313.69 27.352C312.754 25.792 312.286 24.0933 312.286 22.256C312.286 20.4533 312.788 18.8413 313.794 17.42C314.799 15.964 316.186 14.82 317.954 13.988C319.722 13.156 321.715 12.74 323.934 12.74C326.742 12.74 328.978 13.3987 330.642 14.716C332.34 16.0333 333.19 17.8013 333.19 20.02C333.19 21.476 332.826 22.6547 332.098 23.556C331.37 24.4573 330.416 24.908 329.238 24.908C327.92 24.908 326.863 24.3707 326.066 23.296C326.724 22.8107 327.244 22.1693 327.626 21.372C328.007 20.5747 328.198 19.7427 328.198 18.876C328.198 17.7667 327.868 16.8827 327.21 16.224C326.551 15.5653 325.65 15.236 324.506 15.236C323.119 15.236 321.975 15.7387 321.074 16.744C320.207 17.7147 319.774 18.9627 319.774 20.488C319.774 21.8747 320.172 23.1747 320.97 24.388C321.767 25.5667 323.015 27.092 324.714 28.964C326.1 30.4547 327.21 31.7373 328.042 32.812C328.908 33.8867 329.636 35.1347 330.226 36.556C330.85 37.9427 331.162 39.4507 331.162 41.08C331.162 43.2987 330.538 45.3093 329.29 47.112C328.076 48.9147 326.395 50.336 324.246 51.376C322.131 52.416 319.774 52.936 317.174 52.936ZM342.774 23.192C341.63 23.192 340.659 22.7933 339.862 21.996C339.065 21.1987 338.666 20.228 338.666 19.084C338.666 17.94 339.065 16.9693 339.862 16.172C340.659 15.34 341.63 14.924 342.774 14.924C343.918 14.924 344.889 15.34 345.686 16.172C346.518 16.9693 346.934 17.94 346.934 19.084C346.934 20.228 346.518 21.1987 345.686 21.996C344.889 22.7933 343.918 23.192 342.774 23.192ZM339.238 52.312C337.574 52.312 336.222 51.792 335.182 50.752C334.177 49.712 333.674 48.152 333.674 46.072C333.674 45.2053 333.813 44.0787 334.09 42.692L337.626 26H345.114L341.37 43.68C341.231 44.2 341.162 44.7547 341.162 45.344C341.162 46.0373 341.318 46.54 341.63 46.852C341.977 47.1293 342.531 47.268 343.294 47.268C344.299 47.268 345.235 46.852 346.102 46.02C346.969 45.1533 347.593 44.044 347.974 42.692H350.158C348.875 46.436 347.229 48.984 345.218 50.336C343.207 51.6533 341.214 52.312 339.238 52.312ZM366.725 52.312C364.61 52.312 363.05 51.7573 362.045 50.648C361.074 49.504 360.589 48.1 360.589 46.436C360.589 45.708 360.676 44.8933 360.849 43.992C361.022 43.056 361.196 42.1547 361.369 41.288C361.577 40.4213 361.716 39.8667 361.785 39.624C362.062 38.4107 362.322 37.2147 362.565 36.036C362.808 34.8573 362.929 33.904 362.929 33.176C362.929 31.408 362.305 30.524 361.057 30.524C360.156 30.524 359.358 30.9747 358.665 31.876C357.972 32.7427 357.417 33.8867 357.001 35.308L353.465 52H345.977L351.489 26H358.977L358.405 28.704C360.138 26.7627 362.166 25.792 364.489 25.792C366.257 25.792 367.661 26.2773 368.701 27.248C369.741 28.2187 370.261 29.692 370.261 31.668C370.261 32.6733 370.14 33.8 369.897 35.048C369.654 36.2613 369.308 37.752 368.857 39.52C368.58 40.5947 368.32 41.652 368.077 42.692C367.869 43.6973 367.765 44.4947 367.765 45.084C367.765 45.7773 367.921 46.3147 368.233 46.696C368.545 47.0773 369.082 47.268 369.845 47.268C370.885 47.268 371.717 46.904 372.341 46.176C372.965 45.4133 373.589 44.252 374.213 42.692H376.397C375.114 46.5053 373.624 49.0707 371.925 50.388C370.261 51.6707 368.528 52.312 366.725 52.312ZM381.643 52.312C379.078 52.312 377.084 51.6533 375.663 50.336C374.242 48.984 373.531 46.8867 373.531 44.044C373.531 41.652 373.999 39.0173 374.935 36.14C375.906 33.2627 377.431 30.784 379.511 28.704C381.626 26.5893 384.295 25.532 387.519 25.532C389.599 25.532 391.072 25.9827 391.939 26.884C392.84 27.7853 393.291 28.9293 393.291 30.316C393.291 31.5293 393.031 32.4653 392.511 33.124C391.991 33.7827 391.332 34.112 390.535 34.112C389.946 34.112 389.339 33.904 388.715 33.488C389.131 32.344 389.339 31.3213 389.339 30.42C389.339 29.7613 389.218 29.2413 388.975 28.86C388.732 28.4787 388.368 28.288 387.883 28.288C386.843 28.288 385.803 29.1373 384.763 30.836C383.723 32.5347 382.874 34.5973 382.215 37.024C381.556 39.4507 381.227 41.6347 381.227 43.576C381.227 45.2747 381.522 46.436 382.111 47.06C382.7 47.6493 383.654 47.944 384.971 47.944C386.843 47.944 388.438 47.5107 389.755 46.644C391.107 45.7773 392.58 44.46 394.175 42.692H395.943C392.095 49.1053 387.328 52.312 381.643 52.312ZM401.496 52.312C398.965 52.312 396.989 51.6533 395.568 50.336C394.147 48.984 393.436 46.8867 393.436 44.044C393.436 41.652 393.904 39.0173 394.84 36.14C395.776 33.2627 397.301 30.784 399.416 28.704C401.531 26.5893 404.217 25.532 407.476 25.532C411.289 25.532 413.196 27.196 413.196 30.524C413.196 32.4653 412.641 34.2507 411.532 35.88C410.423 37.5093 408.949 38.8267 407.112 39.832C405.275 40.8027 403.316 41.3573 401.236 41.496C401.167 42.2587 401.132 42.7787 401.132 43.056C401.132 45.9333 402.207 47.372 404.356 47.372C405.327 47.372 406.367 47.112 407.476 46.592C408.585 46.072 409.591 45.4133 410.492 44.616C409.556 49.7467 406.557 52.312 401.496 52.312ZM401.6 39C402.917 38.9653 404.148 38.532 405.292 37.7C406.471 36.868 407.407 35.8107 408.1 34.528C408.828 33.2107 409.192 31.8413 409.192 30.42C409.192 28.9987 408.759 28.288 407.892 28.288C406.679 28.288 405.465 29.3973 404.252 31.616C403.073 33.8 402.189 36.2613 401.6 39ZM432.436 19.552H427.496L428.12 17.16C430.027 17.16 432.003 16.9 434.048 16.38C436.094 15.86 438.52 14.768 441.328 13.104L433.06 52H425.572L432.436 19.552ZM450.013 52.156C447.725 52.156 445.888 51.6187 444.501 50.544C443.149 49.4693 442.473 48.048 442.473 46.28C442.473 44.928 442.837 43.784 443.565 42.848C444.293 41.912 445.177 41.444 446.217 41.444C446.841 41.444 447.396 41.6 447.881 41.912C448.401 42.224 448.73 42.6227 448.869 43.108C448.349 43.42 447.933 43.8533 447.621 44.408C447.344 44.928 447.205 45.4827 447.205 46.072C447.205 46.8 447.413 47.4067 447.829 47.892C448.28 48.3773 448.938 48.62 449.805 48.62C451.226 48.62 452.596 47.8747 453.913 46.384C455.23 44.8933 456.374 42.8307 457.345 40.196C458.316 37.5613 459.009 34.632 459.425 31.408L459.269 31.46C458.645 33.0547 457.622 34.268 456.201 35.1C454.814 35.932 453.15 36.348 451.209 36.348C448.782 36.348 446.841 35.5507 445.385 33.956C443.929 32.3267 443.201 30.1253 443.201 27.352C443.201 24.8213 443.86 22.464 445.177 20.28C446.529 18.0613 448.314 16.2933 450.533 14.976C452.752 13.6587 455.144 13 457.709 13C460.898 13 463.308 14.1613 464.937 16.484C466.566 18.772 467.381 22.1693 467.381 26.676C467.381 31.356 466.618 35.6373 465.093 39.52C463.568 43.4027 461.47 46.488 458.801 48.776C456.132 51.0293 453.202 52.156 450.013 52.156ZM453.445 32.552C455.698 32.552 457.345 31.7027 458.385 30.004C459.425 28.3053 459.945 25.9653 459.945 22.984C459.945 18.5813 458.68 16.38 456.149 16.38C455.005 16.38 453.948 16.9173 452.977 17.992C452.006 19.032 451.226 20.384 450.637 22.048C450.082 23.712 449.805 25.428 449.805 27.196C449.805 29.0333 450.134 30.3853 450.793 31.252C451.452 32.1187 452.336 32.552 453.445 32.552ZM479.694 52.26C476.054 52.26 473.367 51.1853 471.634 49.036C469.935 46.852 469.086 43.3507 469.086 38.532C469.086 33.8867 469.883 29.6227 471.478 25.74C473.107 21.8227 475.309 18.7373 478.082 16.484C480.855 14.196 483.906 13.052 487.234 13.052C489.522 13.052 491.342 13.5893 492.694 14.664C494.081 15.7387 494.774 17.16 494.774 18.928C494.774 20.28 494.41 21.424 493.682 22.36C492.954 23.2613 492.053 23.712 490.978 23.712C490.389 23.712 489.851 23.556 489.366 23.244C488.881 22.932 488.534 22.5333 488.326 22.048C488.881 21.7707 489.297 21.3547 489.574 20.8C489.886 20.2453 490.042 19.656 490.042 19.032C490.042 18.2347 489.799 17.5587 489.314 17.004C488.863 16.4147 488.205 16.12 487.338 16.12C485.917 16.12 484.513 16.8653 483.126 18.356C481.774 19.8467 480.561 21.9093 479.486 24.544C478.411 27.144 477.631 30.056 477.146 33.28L477.302 33.228C477.926 31.6333 478.949 30.42 480.37 29.588C481.791 28.756 483.473 28.34 485.414 28.34C487.806 28.34 489.73 29.1547 491.186 30.784C492.642 32.3787 493.37 34.5627 493.37 37.336C493.37 39.9013 492.746 42.328 491.498 44.616C490.25 46.904 488.569 48.7587 486.454 50.18C484.374 51.5667 482.121 52.26 479.694 52.26ZM480.786 48.204C481.757 48.204 482.693 47.736 483.594 46.8C484.53 45.8293 485.293 44.5293 485.882 42.9C486.471 41.236 486.766 39.4333 486.766 37.492C486.766 35.62 486.385 34.2507 485.622 33.384C484.894 32.4827 483.889 32.032 482.606 32.032C478.654 32.032 476.678 34.892 476.678 40.612C476.678 45.6733 478.047 48.204 480.786 48.204ZM519.312 35.672C519.312 37.024 518.792 38.22 517.752 39.26C516.712 40.3 515.377 40.976 513.748 41.288L511.46 52H504.232L508.132 40.82L507.144 40.508C505.757 40.1267 504.665 39.8493 503.868 39.676C503.07 39.5027 502.221 39.416 501.32 39.416C499.032 39.416 497.16 39.78 495.704 40.508H495.496L494.404 38.48V38.22C497.974 33.956 500.765 30.1253 502.776 26.728C504.786 23.3307 505.792 20.0893 505.792 17.004C505.792 15.964 505.653 14.8893 505.376 13.78C506.104 13.5373 506.97 13.416 507.976 13.416C509.536 13.416 510.749 13.8493 511.616 14.716C512.482 15.548 512.916 16.6227 512.916 17.94C512.916 19.5 512.222 21.3547 510.836 23.504C509.484 25.6187 507.802 27.7333 505.792 29.848C503.816 31.928 501.874 33.7307 499.968 35.256L500.02 35.412C500.644 35.1693 501.372 34.9613 502.204 34.788C503.07 34.58 503.885 34.476 504.648 34.476C505.514 34.476 506.554 34.58 507.768 34.788C508.981 34.996 509.744 35.1347 510.056 35.204L514.268 23.088H517.596L515.048 35.152C516.261 34.7013 517.353 33.8867 518.324 32.708L518.48 32.812C519.034 33.7827 519.312 34.736 519.312 35.672Z" transform="translate(250 522)" fill="#666666"/>
<path d="M31.1 80.8C38.8 80.8 44.8 78.2 50.2 74.8V40.1H28.2V51.9H37.7V67.1C36.5 67.9 34.3 68.5 32 68.5C24.1 68.5 17.2 61.8 17.2 45.6V44.2C17.2 30.2 23.3 21.9 31.9 21.9C37.1 21.9 40.3 24.6 42.2 26.8L49.6 15.8C44.2 11.3 38.4 9.2 31.8 9.2C15.3 9.2 3.5 22.6 3.5 44.2V45.8C3.5 69.1 15.6 80.8 31.1 80.8ZM59.8922 80H73.2922V56.3H79.1922L89.6922 80H104.592L92.2922 52.9C98.4922 49.4 102.992 43.2 102.992 33.2V32.6C102.992 25.4 100.892 19.9 97.1922 16.2C93.0922 12.1 86.9922 10 79.6922 10H59.8922V80ZM73.2922 44.4V22.3H78.2922C85.5922 22.3 89.5922 25.9 89.5922 33.3C89.5922 40 85.8922 44.4 78.5922 44.4H73.2922ZM107.25 80H120.45L124.15 65.4H142.15L145.95 80H159.65L140.15 9.7H126.65L107.25 80ZM127.35 53.5L133.25 30.5L138.95 53.5H127.35ZM175.55 80.3H188.55L206.85 10H193.15L182.25 57L171.35 10H157.25L175.55 80.3ZM213.213 80H250.012V67.6H226.513V51H246.913V38.6H226.513V22.4H249.613V10H213.213V80ZM258.818 80H293.218V67.5H272.218V10H258.818V80ZM306.491 80H319.891V52.3L337.991 10H323.791L313.291 36.9L302.891 10H288.291L306.491 52.4V80ZM372.336 80H385.736V22.6H399.036V10H359.036V22.6H372.336V80ZM406.67 80H420.07V56.3H425.97L436.47 80H451.37L439.07 52.9C445.27 49.4 449.77 43.2 449.77 33.2V32.6C449.77 25.4 447.67 19.9 443.97 16.2C439.87 12.1 433.77 10 426.47 10H406.67V80ZM420.07 44.4V22.3H425.07C432.37 22.3 436.37 25.9 436.37 33.3C436.37 40 432.67 44.4 425.37 44.4H420.07ZM454.027 80H467.227L470.927 65.4H488.927L492.727 80H506.427L486.927 9.7H473.427L454.027 80ZM474.127 53.5L480.027 30.5L485.727 53.5H474.127ZM533.98 80.8C540.68 80.8 546.38 78.2 551.58 73.2L544.48 62.8C541.28 66 538.48 68 534.48 68C528.18 68 522.18 61.2 522.18 45.2V44.7C522.18 29.7 527.78 22 534.68 22C538.28 22 541.28 24.1 543.88 26.7L551.48 16C547.28 11.9 542.08 9.2 534.78 9.2C519.68 9.2 508.48 21.4 508.48 44.2V45.8C508.48 68.6 518.38 80.8 533.98 80.8ZM569.016 80H582.416V22.6H595.716V10H555.716V22.6H569.016V80ZM624.408 81.1C639.508 81.1 649.908 68.1 649.908 46.1V43.8C649.908 21.8 639.608 8.9 624.508 8.9C609.408 8.9 599.008 21.8 599.008 43.9V46.2C599.008 68.2 609.308 81.1 624.408 81.1ZM624.508 68.8C617.808 68.8 612.708 61.4 612.708 45.6V44.3C612.708 28.5 617.708 21.2 624.408 21.2C631.108 21.2 636.208 28.6 636.208 44.4V45.7C636.208 61.5 631.208 68.8 624.508 68.8ZM658.818 80H672.218V56.3H678.118L688.618 80H703.518L691.218 52.9C697.418 49.4 701.918 43.2 701.918 33.2V32.6C701.918 25.4 699.818 19.9 696.118 16.2C692.018 12.1 685.918 10 678.618 10H658.818V80ZM672.218 44.4V22.3H677.218C684.518 22.3 688.518 25.9 688.518 33.3C688.518 40 684.818 44.4 677.518 44.4H672.218ZM726.776 80.7C738.576 80.7 747.876 72.5 747.876 60.5V60.3C747.876 51 742.776 45.6 732.876 39.5C723.176 33.5 721.576 31.1 721.576 27.8C721.576 24.1 724.576 21.7 728.576 21.7C733.476 21.7 737.376 25 739.876 27.7L748.076 17.4C742.476 11.5 735.176 9.3 729.176 9.3C716.676 9.3 708.076 17.3 708.076 29.1V29.3C708.076 39.1 714.276 44.6 724.876 50.9C732.776 55.6 734.376 58 734.376 61.1C734.376 65.1 731.476 68.3 726.576 68.3C720.676 68.3 716.176 63.9 713.176 61L705.176 71.4C712.076 78.3 719.776 80.7 726.776 80.7Z" transform="translate(129 415)" fill="#AA1111"/>
<path d="M50.2 74.8L50.7328 75.6462L51.2 75.3521V74.8H50.2ZM50.2 40.1H51.2V39.1H50.2V40.1ZM28.2 40.1V39.1H27.2V40.1H28.2ZM28.2 51.9H27.2V52.9H28.2V51.9ZM37.7 51.9H38.7V50.9H37.7V51.9ZM37.7 67.1L38.2547 67.9321L38.7 67.6352V67.1H37.7ZM42.2 26.8L41.4432 27.4536L42.2989 28.4445L43.0297 27.3582L42.2 26.8ZM49.6 15.8L50.4297 16.3582L50.9334 15.6095L50.2402 15.0318L49.6 15.8ZM31.1 81.8C39.0509 81.8 45.2358 79.1073 50.7328 75.6462L49.6672 73.9538C44.3642 77.2927 38.5491 79.8 31.1 79.8V81.8ZM51.2 74.8V40.1H49.2V74.8H51.2ZM50.2 39.1H28.2V41.1H50.2V39.1ZM27.2 40.1V51.9H29.2V40.1H27.2ZM28.2 52.9H37.7V50.9H28.2V52.9ZM36.7 51.9V67.1H38.7V51.9H36.7ZM37.1453 66.268C36.1589 66.9256 34.1716 67.5 32 67.5V69.5C34.4284 69.5 36.8411 68.8744 38.2547 67.9321L37.1453 66.268ZM32 67.5C28.362 67.5 24.9643 65.9715 22.444 62.5338C19.9005 59.0643 18.2 53.5746 18.2 45.6H16.2C16.2 53.8254 17.9495 59.7857 20.831 63.7162C23.7357 67.6785 27.738 69.5 32 69.5V67.5ZM18.2 45.6V44.2H16.2V45.6H18.2ZM18.2 44.2C18.2 37.3302 19.6987 31.9714 22.152 28.3622C24.5861 24.7813 27.9656 22.9 31.9 22.9V20.9C27.2344 20.9 23.2639 23.1687 20.498 27.2378C17.7513 31.2786 16.2 37.0698 16.2 44.2H18.2ZM31.9 22.9C36.6982 22.9 39.6459 25.3725 41.4432 27.4536L42.9568 26.1464C40.9541 23.8275 37.5018 20.9 31.9 20.9V22.9ZM43.0297 27.3582L50.4297 16.3582L48.7703 15.2418L41.3703 26.2418L43.0297 27.3582ZM50.2402 15.0318C44.6669 10.3873 38.6421 8.2 31.8 8.2V10.2C38.1579 10.2 43.7331 12.2127 48.9598 16.5682L50.2402 15.0318ZM31.8 8.2C23.2583 8.2 15.8988 11.6781 10.6925 17.962C5.49852 24.231 2.5 33.2243 2.5 44.2H4.5C4.5 33.5757 7.40148 25.069 12.2325 19.238C17.0512 13.4219 23.8417 10.2 31.8 10.2V8.2ZM2.5 44.2V45.8H4.5V44.2H2.5ZM2.5 45.8C2.5 57.6158 5.56866 66.619 10.7256 72.6852C15.8948 78.7659 23.0835 81.8 31.1 81.8V79.8C23.6165 79.8 17.0052 76.9841 12.2494 71.3898C7.48134 65.781 4.5 57.2842 4.5 45.8H2.5ZM59.8922 80H58.8922V81H59.8922V80ZM73.2922 80V81H74.2922V80H73.2922ZM73.2922 56.3V55.3H72.2922V56.3H73.2922ZM79.1922 56.3L80.1065 55.8949L79.8429 55.3H79.1922V56.3ZM89.6922 80L88.7779 80.4051L89.0415 81H89.6922V80ZM104.592 80V81H106.144L105.503 79.5867L104.592 80ZM92.2922 52.9L91.8006 52.0292L91.0031 52.4794L91.3816 53.3133L92.2922 52.9ZM97.1922 16.2L96.4851 16.9071L96.4851 16.9071L97.1922 16.2ZM59.8922 10V9H58.8922V10H59.8922ZM73.2922 44.4H72.2922V45.4H73.2922V44.4ZM73.2922 22.3V21.3H72.2922V22.3H73.2922ZM59.8922 81H73.2922V79H59.8922V81ZM74.2922 80V56.3H72.2922V80H74.2922ZM73.2922 57.3H79.1922V55.3H73.2922V57.3ZM78.2779 56.7051L88.7779 80.4051L90.6065 79.5949L80.1065 55.8949L78.2779 56.7051ZM89.6922 81H104.592V79H89.6922V81ZM105.503 79.5867L93.2028 52.4867L91.3816 53.3133L103.682 80.4133L105.503 79.5867ZM92.7838 53.7708C99.2948 50.0952 103.992 43.5642 103.992 33.2H101.992C101.992 42.8358 97.6895 48.7048 91.8006 52.0292L92.7838 53.7708ZM103.992 33.2V32.6H101.992V33.2H103.992ZM103.992 32.6C103.992 25.2056 101.832 19.4252 97.8993 15.4929L96.4851 16.9071C99.9528 20.3748 101.992 25.5944 101.992 32.6H103.992ZM97.8993 15.4929C93.5598 11.1534 87.1736 9 79.6922 9V11C86.8108 11 92.6246 13.0466 96.4851 16.9071L97.8993 15.4929ZM79.6922 9H59.8922V11H79.6922V9ZM58.8922 10V80H60.8922V10H58.8922ZM74.2922 44.4V22.3H72.2922V44.4H74.2922ZM73.2922 23.3H78.2922V21.3H73.2922V23.3ZM78.2922 23.3C81.7915 23.3 84.3277 24.1629 85.9893 25.7485C87.6425 27.326 88.5922 29.7747 88.5922 33.3H90.5922C90.5922 29.4253 89.5418 26.374 87.3701 24.3015C85.2067 22.2371 82.0929 21.3 78.2922 21.3V23.3ZM88.5922 33.3C88.5922 36.4726 87.7179 38.9728 86.1041 40.6744C84.4987 42.3671 82.0378 43.4 78.5922 43.4V45.4C82.4466 45.4 85.4857 44.2329 87.5553 42.0506C89.6165 39.8772 90.5922 36.8274 90.5922 33.3H88.5922ZM78.5922 43.4H73.2922V45.4H78.5922V43.4ZM107.25 80L106.286 79.734L105.937 81H107.25V80ZM120.45 80V81H121.228L121.419 80.2457L120.45 80ZM124.15 65.4V64.4H123.372L123.181 65.1543L124.15 65.4ZM142.15 65.4L143.118 65.1481L142.923 64.4H142.15V65.4ZM145.95 80L144.982 80.2519L145.177 81H145.95V80ZM159.65 80V81H160.965L160.614 79.7327L159.65 80ZM140.15 9.7L141.114 9.43271L140.91 8.7H140.15V9.7ZM126.65 9.7V8.7H125.889L125.686 9.43398L126.65 9.7ZM127.35 53.5L126.381 53.2515L126.061 54.5H127.35V53.5ZM133.25 30.5L134.221 30.2595L132.281 30.2515L133.25 30.5ZM138.95 53.5V54.5H140.228L139.921 53.2595L138.95 53.5ZM107.25 81H120.45V79H107.25V81ZM121.419 80.2457L125.119 65.6457L123.181 65.1543L119.481 79.7543L121.419 80.2457ZM124.15 66.4H142.15V64.4H124.15V66.4ZM141.182 65.6519L144.982 80.2519L146.918 79.7481L143.118 65.1481L141.182 65.6519ZM145.95 81H159.65V79H145.95V81ZM160.614 79.7327L141.114 9.43271L139.186 9.96729L158.686 80.2673L160.614 79.7327ZM140.15 8.7H126.65V10.7H140.15V8.7ZM125.686 9.43398L106.286 79.734L108.214 80.266L127.614 9.96602L125.686 9.43398ZM128.319 53.7485L134.219 30.7485L132.281 30.2515L126.381 53.2515L128.319 53.7485ZM132.279 30.7405L137.979 53.7406L139.921 53.2595L134.221 30.2595L132.279 30.7405ZM138.95 52.5H127.35V54.5H138.95V52.5ZM175.55 80.3L174.582 80.5519L174.777 81.3H175.55V80.3ZM188.55 80.3V81.3H189.323L189.518 80.5519L188.55 80.3ZM206.85 10L207.818 10.2519L208.144 9H206.85V10ZM193.15 10V9H192.355L192.176 9.77408L193.15 10ZM182.25 57L181.276 57.2259H183.224L182.25 57ZM171.35 10L172.324 9.77408L172.145 9H171.35V10ZM157.25 10V9H155.956L156.282 10.2519L157.25 10ZM175.55 81.3H188.55V79.3H175.55V81.3ZM189.518 80.5519L207.818 10.2519L205.882 9.74808L187.582 80.0481L189.518 80.5519ZM206.85 9H193.15V11H206.85V9ZM192.176 9.77408L181.276 56.7741L183.224 57.2259L194.124 10.2259L192.176 9.77408ZM183.224 56.7741L172.324 9.77408L170.376 10.2259L181.276 57.2259L183.224 56.7741ZM171.35 9H157.25V11H171.35V9ZM156.282 10.2519L174.582 80.5519L176.518 80.0481L158.218 9.74808L156.282 10.2519ZM213.213 80H212.213V81H213.213V80ZM250.012 80V81H251.012V80H250.012ZM250.012 67.6H251.012V66.6H250.012V67.6ZM226.513 67.6H225.513V68.6H226.513V67.6ZM226.513 51V50H225.513V51H226.513ZM246.913 51V52H247.913V51H246.913ZM246.913 38.6H247.913V37.6H246.913V38.6ZM226.513 38.6H225.513V39.6H226.513V38.6ZM226.513 22.4V21.4H225.513V22.4H226.513ZM249.613 22.4V23.4H250.613V22.4H249.613ZM249.613 10H250.613V9H249.613V10ZM213.213 10V9H212.213V10H213.213ZM213.213 81H250.012V79H213.213V81ZM251.012 80V67.6H249.012V80H251.012ZM250.012 66.6H226.513V68.6H250.012V66.6ZM227.513 67.6V51H225.513V67.6H227.513ZM226.513 52H246.913V50H226.513V52ZM247.913 51V38.6H245.913V51H247.913ZM246.913 37.6H226.513V39.6H246.913V37.6ZM227.513 38.6V22.4H225.513V38.6H227.513ZM226.513 23.4H249.613V21.4H226.513V23.4ZM250.613 22.4V10H248.613V22.4H250.613ZM249.613 9H213.213V11H249.613V9ZM212.213 10V80H214.213V10H212.213ZM258.818 80H257.818V81H258.818V80ZM293.218 80V81H294.218V80H293.218ZM293.218 67.5H294.218V66.5H293.218V67.5ZM272.218 67.5H271.218V68.5H272.218V67.5ZM272.218 10H273.218V9H272.218V10ZM258.818 10V9H257.818V10H258.818ZM258.818 81H293.218V79H258.818V81ZM294.218 80V67.5H292.218V80H294.218ZM293.218 66.5H272.218V68.5H293.218V66.5ZM273.218 67.5V10H271.218V67.5H273.218ZM272.218 9H258.818V11H272.218V9ZM257.818 10V80H259.818V10H257.818ZM306.491 80H305.491V81H306.491V80ZM319.891 80V81H320.891V80H319.891ZM319.891 52.3L318.971 51.9066L318.891 52.095V52.3H319.891ZM337.991 10L338.91 10.3934L339.506 9H337.991V10ZM323.791 10V9H323.107L322.859 9.63639L323.791 10ZM313.291 36.9L312.358 37.2606L313.286 39.6616L314.222 37.2636L313.291 36.9ZM302.891 10L303.823 9.6394L303.576 9H302.891V10ZM288.291 10V9H286.773L287.372 10.3944L288.291 10ZM306.491 52.4H307.491V52.1944L307.41 52.0056L306.491 52.4ZM306.491 81H319.891V79H306.491V81ZM320.891 80V52.3H318.891V80H320.891ZM320.81 52.6934L338.91 10.3934L337.071 9.60661L318.971 51.9066L320.81 52.6934ZM337.991 9H323.791V11H337.991V9ZM322.859 9.63639L312.359 36.5364L314.222 37.2636L324.722 10.3636L322.859 9.63639ZM314.223 36.5394L303.823 9.6394L301.958 10.3606L312.358 37.2606L314.223 36.5394ZM302.891 9H288.291V11H302.891V9ZM287.372 10.3944L305.572 52.7944L307.41 52.0056L289.21 9.60556L287.372 10.3944ZM305.491 52.4V80H307.491V52.4H305.491ZM372.336 80H371.336V81H372.336V80ZM385.736 80V81H386.736V80H385.736ZM385.736 22.6V21.6H384.736V22.6H385.736ZM399.036 22.6V23.6H400.036V22.6H399.036ZM399.036 10H400.036V9H399.036V10ZM359.036 10V9H358.036V10H359.036ZM359.036 22.6H358.036V23.6H359.036V22.6ZM372.336 22.6H373.336V21.6H372.336V22.6ZM372.336 81H385.736V79H372.336V81ZM386.736 80V22.6H384.736V80H386.736ZM385.736 23.6H399.036V21.6H385.736V23.6ZM400.036 22.6V10H398.036V22.6H400.036ZM399.036 9H359.036V11H399.036V9ZM358.036 10V22.6H360.036V10H358.036ZM359.036 23.6H372.336V21.6H359.036V23.6ZM371.336 22.6V80H373.336V22.6H371.336ZM406.67 80H405.67V81H406.67V80ZM420.07 80V81H421.07V80H420.07ZM420.07 56.3V55.3H419.07V56.3H420.07ZM425.97 56.3L426.884 55.8949L426.62 55.3H425.97V56.3ZM436.47 80L435.555 80.4051L435.819 81H436.47V80ZM451.37 80V81H452.922L452.28 79.5867L451.37 80ZM439.07 52.9L438.578 52.0292L437.78 52.4794L438.159 53.3133L439.07 52.9ZM443.97 16.2L443.262 16.9071L443.262 16.9071L443.97 16.2ZM406.67 10V9H405.67V10H406.67ZM420.07 44.4H419.07V45.4H420.07V44.4ZM420.07 22.3V21.3H419.07V22.3H420.07ZM406.67 81H420.07V79H406.67V81ZM421.07 80V56.3H419.07V80H421.07ZM420.07 57.3H425.97V55.3H420.07V57.3ZM425.055 56.7051L435.555 80.4051L437.384 79.5949L426.884 55.8949L425.055 56.7051ZM436.47 81H451.37V79H436.47V81ZM452.28 79.5867L439.98 52.4867L438.159 53.3133L450.459 80.4133L452.28 79.5867ZM439.561 53.7708C446.072 50.0952 450.77 43.5642 450.77 33.2H448.77C448.77 42.8358 444.467 48.7048 438.578 52.0292L439.561 53.7708ZM450.77 33.2V32.6H448.77V33.2H450.77ZM450.77 32.6C450.77 25.2056 448.609 19.4252 444.677 15.4929L443.262 16.9071C446.73 20.3748 448.77 25.5944 448.77 32.6H450.77ZM444.677 15.4929C440.337 11.1534 433.951 9 426.47 9V11C433.588 11 439.402 13.0466 443.262 16.9071L444.677 15.4929ZM426.47 9H406.67V11H426.47V9ZM405.67 10V80H407.67V10H405.67ZM421.07 44.4V22.3H419.07V44.4H421.07ZM420.07 23.3H425.07V21.3H420.07V23.3ZM425.07 23.3C428.569 23.3 431.105 24.1629 432.767 25.7485C434.42 27.326 435.37 29.7747 435.37 33.3H437.37C437.37 29.4253 436.319 26.374 434.147 24.3015C431.984 22.2371 428.87 21.3 425.07 21.3V23.3ZM435.37 33.3C435.37 36.4726 434.495 38.9728 432.881 40.6744C431.276 42.3671 428.815 43.4 425.37 43.4V45.4C429.224 45.4 432.263 44.2329 434.333 42.0506C436.394 39.8772 437.37 36.8274 437.37 33.3H435.37ZM425.37 43.4H420.07V45.4H425.37V43.4ZM454.027 80L453.063 79.734L452.714 81H454.027V80ZM467.227 80V81H468.006L468.197 80.2457L467.227 80ZM470.927 65.4V64.4H470.149L469.958 65.1543L470.927 65.4ZM488.927 65.4L489.895 65.1481L489.7 64.4H488.927V65.4ZM492.727 80L491.76 80.2519L491.954 81H492.727V80ZM506.427 80V81H507.742L507.391 79.7327L506.427 80ZM486.927 9.7L487.891 9.43271L487.688 8.7H486.927V9.7ZM473.427 9.7V8.7H472.666L472.463 9.43398L473.427 9.7ZM474.127 53.5L473.159 53.2515L472.838 54.5H474.127V53.5ZM480.027 30.5L480.998 30.2595L479.059 30.2515L480.027 30.5ZM485.727 53.5V54.5H487.005L486.698 53.2595L485.727 53.5ZM454.027 81H467.227V79H454.027V81ZM468.197 80.2457L471.897 65.6457L469.958 65.1543L466.258 79.7543L468.197 80.2457ZM470.927 66.4H488.927V64.4H470.927V66.4ZM487.96 65.6519L491.76 80.2519L493.695 79.7481L489.895 65.1481L487.96 65.6519ZM492.727 81H506.427V79H492.727V81ZM507.391 79.7327L487.891 9.43271L485.964 9.96729L505.464 80.2673L507.391 79.7327ZM486.927 8.7H473.427V10.7H486.927V8.7ZM472.463 9.43398L453.063 79.734L454.991 80.266L474.391 9.96602L472.463 9.43398ZM475.096 53.7485L480.996 30.7485L479.059 30.2515L473.159 53.2515L475.096 53.7485ZM479.057 30.7405L484.757 53.7406L486.698 53.2595L480.998 30.2595L479.057 30.7405ZM485.727 52.5H474.127V54.5H485.727V52.5ZM551.58 73.2L552.274 73.9208L552.883 73.3347L552.406 72.6362L551.58 73.2ZM544.48 62.8L545.306 62.2362L544.626 61.24L543.773 62.0929L544.48 62.8ZM543.88 26.7L543.173 27.4071L544.01 28.2441L544.696 27.2791L543.88 26.7ZM551.48 16L552.296 16.5791L552.791 15.8818L552.179 15.2844L551.48 16ZM533.98 81.8C540.98 81.8 546.919 79.0692 552.274 73.9208L550.887 72.4792C545.842 77.3308 540.381 79.8 533.98 79.8V81.8ZM552.406 72.6362L545.306 62.2362L543.655 63.3638L550.755 73.7638L552.406 72.6362ZM543.773 62.0929C540.621 65.2448 538.068 67 534.48 67V69C538.893 69 541.94 66.7552 545.188 63.5071L543.773 62.0929ZM534.48 67C531.738 67 528.958 65.5348 526.819 62.0741C524.663 58.5877 523.18 53.0926 523.18 45.2H521.18C521.18 53.3074 522.698 59.2123 525.117 63.1259C527.553 67.0652 530.923 69 534.48 69V67ZM523.18 45.2V44.7H521.18V45.2H523.18ZM523.18 44.7C523.18 37.3069 524.563 31.8292 526.702 28.2366C528.827 24.6677 531.659 23 534.68 23V21C530.802 21 527.384 23.1823 524.984 27.2134C522.598 31.2208 521.18 37.0931 521.18 44.7H523.18ZM534.68 23C537.872 23 540.627 24.8602 543.173 27.4071L544.588 25.9929C541.934 23.3398 538.689 21 534.68 21V23ZM544.696 27.2791L552.296 16.5791L550.665 15.4209L543.065 26.1209L544.696 27.2791ZM552.179 15.2844C547.816 11.0255 542.373 8.2 534.78 8.2V10.2C541.788 10.2 546.745 12.7745 550.782 16.7156L552.179 15.2844ZM534.78 8.2C526.938 8.2 520.07 11.3798 515.185 17.5279C510.318 23.6545 507.48 32.6469 507.48 44.2H509.48C509.48 32.9531 512.243 24.4455 516.751 18.7721C521.241 13.1202 527.523 10.2 534.78 10.2V8.2ZM507.48 44.2V45.8H509.48V44.2H507.48ZM507.48 45.8C507.48 57.3268 509.981 66.3168 514.58 72.45C519.208 78.6203 525.89 81.8 533.98 81.8V79.8C526.471 79.8 520.403 76.8797 516.18 71.25C511.93 65.5832 509.48 57.0732 509.48 45.8H507.48ZM569.016 80H568.016V81H569.016V80ZM582.416 80V81H583.416V80H582.416ZM582.416 22.6V21.6H581.416V22.6H582.416ZM595.716 22.6V23.6H596.716V22.6H595.716ZM595.716 10H596.716V9H595.716V10ZM555.716 10V9H554.716V10H555.716ZM555.716 22.6H554.716V23.6H555.716V22.6ZM569.016 22.6H570.016V21.6H569.016V22.6ZM569.016 81H582.416V79H569.016V81ZM583.416 80V22.6H581.416V80H583.416ZM582.416 23.6H595.716V21.6H582.416V23.6ZM596.716 22.6V10H594.716V22.6H596.716ZM595.716 9H555.716V11H595.716V9ZM554.716 10V22.6H556.716V10H554.716ZM555.716 23.6H569.016V21.6H555.716V23.6ZM568.016 22.6V80H570.016V22.6H568.016ZM624.408 82.1C632.277 82.1 638.947 78.6981 643.621 72.4489C648.275 66.2266 650.908 57.2447 650.908 46.1H648.908C648.908 56.9553 646.341 65.4734 642.02 71.2511C637.718 77.0019 631.638 80.1 624.408 80.1V82.1ZM650.908 46.1V43.8H648.908V46.1H650.908ZM650.908 43.8C650.908 32.6573 648.301 23.7 643.672 17.5016C639.021 11.2753 632.375 7.9 624.508 7.9V9.9C631.741 9.9 637.794 12.9747 642.069 18.6984C646.365 24.45 648.908 32.9427 648.908 43.8H650.908ZM624.508 7.9C616.641 7.9 609.97 11.2748 605.295 17.5128C600.64 23.7235 598.008 32.7062 598.008 43.9H600.008C600.008 32.9938 602.575 24.4765 606.896 18.7122C611.195 12.9752 617.275 9.9 624.508 9.9V7.9ZM598.008 43.9V46.2H600.008V43.9H598.008ZM598.008 46.2C598.008 57.3427 600.615 66.3 605.244 72.4984C609.894 78.7247 616.541 82.1 624.408 82.1V80.1C617.175 80.1 611.121 77.0253 606.847 71.3016C602.551 65.55 600.008 57.0573 600.008 46.2H598.008ZM624.508 67.8C621.599 67.8 618.948 66.2212 616.971 62.6415C614.973 59.0238 613.708 53.4147 613.708 45.6H611.708C611.708 53.5853 612.993 59.5762 615.22 63.6085C617.468 67.6788 620.717 69.8 624.508 69.8V67.8ZM613.708 45.6V44.3H611.708V45.6H613.708ZM613.708 44.3C613.708 36.4823 614.949 30.8984 616.922 27.3065C618.872 23.7568 621.496 22.2 624.408 22.2V20.2C620.62 20.2 617.394 22.2932 615.169 26.3435C612.967 30.3516 611.708 36.3177 611.708 44.3H613.708ZM624.408 22.2C627.317 22.2 629.968 23.7788 631.945 27.3585C633.943 30.9762 635.208 36.5853 635.208 44.4H637.208C637.208 36.4147 635.923 30.4238 633.696 26.3915C631.448 22.3212 628.199 20.2 624.408 20.2V22.2ZM635.208 44.4V45.7H637.208V44.4H635.208ZM635.208 45.7C635.208 53.5177 633.967 59.1016 631.994 62.6935C630.044 66.2432 627.42 67.8 624.508 67.8V69.8C628.296 69.8 631.522 67.7068 633.747 63.6565C635.949 59.6484 637.208 53.6823 637.208 45.7H635.208ZM658.818 80H657.818V81H658.818V80ZM672.218 80V81H673.218V80H672.218ZM672.218 56.3V55.3H671.218V56.3H672.218ZM678.118 56.3L679.032 55.8949L678.769 55.3H678.118V56.3ZM688.618 80L687.704 80.4051L687.967 81H688.618V80ZM703.518 80V81H705.07L704.429 79.5867L703.518 80ZM691.218 52.9L690.726 52.0292L689.929 52.4794L690.307 53.3133L691.218 52.9ZM696.118 16.2L695.411 16.9071L695.411 16.9071L696.118 16.2ZM658.818 10V9H657.818V10H658.818ZM672.218 44.4H671.218V45.4H672.218V44.4ZM672.218 22.3V21.3H671.218V22.3H672.218ZM658.818 81H672.218V79H658.818V81ZM673.218 80V56.3H671.218V80H673.218ZM672.218 57.3H678.118V55.3H672.218V57.3ZM677.204 56.7051L687.704 80.4051L689.532 79.5949L679.032 55.8949L677.204 56.7051ZM688.618 81H703.518V79H688.618V81ZM704.429 79.5867L692.129 52.4867L690.307 53.3133L702.607 80.4133L704.429 79.5867ZM691.71 53.7708C698.221 50.0952 702.918 43.5642 702.918 33.2H700.918C700.918 42.8358 696.615 48.7048 690.726 52.0292L691.71 53.7708ZM702.918 33.2V32.6H700.918V33.2H702.918ZM702.918 32.6C702.918 25.2056 700.757 19.4252 696.825 15.4929L695.411 16.9071C698.879 20.3748 700.918 25.5944 700.918 32.6H702.918ZM696.825 15.4929C692.486 11.1534 686.099 9 678.618 9V11C685.737 11 691.55 13.0466 695.411 16.9071L696.825 15.4929ZM678.618 9H658.818V11H678.618V9ZM657.818 10V80H659.818V10H657.818ZM673.218 44.4V22.3H671.218V44.4H673.218ZM672.218 23.3H677.218V21.3H672.218V23.3ZM677.218 23.3C680.717 23.3 683.253 24.1629 684.915 25.7485C686.568 27.326 687.518 29.7747 687.518 33.3H689.518C689.518 29.4253 688.468 26.374 686.296 24.3015C684.132 22.2371 681.019 21.3 677.218 21.3V23.3ZM687.518 33.3C687.518 36.4726 686.644 38.9728 685.03 40.6744C683.425 42.3671 680.964 43.4 677.518 43.4V45.4C681.372 45.4 684.411 44.2329 686.481 42.0506C688.542 39.8772 689.518 36.8274 689.518 33.3H687.518ZM677.518 43.4H672.218V45.4H677.518V43.4ZM732.876 39.5L732.35 40.3505L732.351 40.3514L732.876 39.5ZM739.876 27.7L739.142 28.3794L739.933 29.2337L740.658 28.3228L739.876 27.7ZM748.076 17.4L748.858 18.0228L749.4 17.3424L748.801 16.7116L748.076 17.4ZM724.876 50.9L725.387 50.0406L725.387 50.0404L724.876 50.9ZM713.176 61L713.871 60.281L713.066 59.5028L712.383 60.3903L713.176 61ZM705.176 71.4L704.383 70.7903L703.848 71.4862L704.469 72.1071L705.176 71.4ZM726.776 81.7C739.063 81.7 748.876 73.1153 748.876 60.5H746.876C746.876 71.8847 738.089 79.7 726.776 79.7V81.7ZM748.876 60.5V60.3H746.876V60.5H748.876ZM748.876 60.3C748.876 55.4401 747.534 51.5489 744.882 48.0913C742.256 44.6692 738.381 41.7173 733.4 38.6486L732.351 40.3514C737.271 43.3827 740.895 46.1808 743.295 49.3087C745.667 52.4011 746.876 55.8599 746.876 60.3H748.876ZM733.402 38.6495C728.555 35.6515 725.836 33.6133 724.326 31.9625C723.583 31.1508 723.157 30.458 722.91 29.8171C722.665 29.1793 722.576 28.5394 722.576 27.8H720.576C720.576 28.7106 720.687 29.6082 721.044 30.536C721.4 31.4607 721.981 32.3617 722.85 33.3125C724.565 35.1867 727.497 37.3485 732.35 40.3505L733.402 38.6495ZM722.576 27.8C722.576 26.2419 723.198 24.996 724.223 24.1244C725.263 23.2411 726.771 22.7 728.576 22.7V20.7C726.381 20.7 724.389 21.3589 722.928 22.6006C721.453 23.854 720.576 25.6581 720.576 27.8H722.576ZM728.576 22.7C733.03 22.7 736.675 25.7149 739.142 28.3794L740.61 27.0206C738.077 24.2851 733.922 20.7 728.576 20.7V22.7ZM740.658 28.3228L748.858 18.0228L747.293 16.7772L739.093 27.0772L740.658 28.3228ZM748.801 16.7116C742.982 10.581 735.403 8.3 729.176 8.3V10.3C734.948 10.3 741.969 12.419 747.35 18.0884L748.801 16.7116ZM729.176 8.3C722.712 8.3 717.18 10.3712 713.255 14.0449C709.325 17.7239 707.076 22.9459 707.076 29.1H709.076C709.076 23.4541 711.127 18.7761 714.622 15.5051C718.122 12.2288 723.14 10.3 729.176 10.3V8.3ZM707.076 29.1V29.3H709.076V29.1H707.076ZM707.076 29.3C707.076 34.4466 708.716 38.4988 711.738 42.0596C714.727 45.5806 719.049 48.6001 724.365 51.7596L725.387 50.0404C720.103 46.8999 716.025 44.0194 713.263 40.7654C710.535 37.5512 709.076 33.9534 709.076 29.3H707.076ZM724.364 51.7594C728.3 54.1006 730.56 55.8101 731.838 57.261C733.06 58.6485 733.376 59.7867 733.376 61.1H735.376C735.376 59.3133 734.891 57.7015 733.339 55.939C731.842 54.2399 729.352 52.3994 725.387 50.0406L724.364 51.7594ZM733.376 61.1C733.376 62.8533 732.744 64.3869 731.616 65.4829C730.49 66.5773 728.802 67.3 726.576 67.3V69.3C729.249 69.3 731.461 68.4227 733.01 66.9171C734.558 65.4131 735.376 63.3467 735.376 61.1H733.376ZM726.576 67.3C721.146 67.3 716.933 63.2409 713.871 60.281L712.481 61.719C715.419 64.5591 720.205 69.3 726.576 69.3V67.3ZM712.383 60.3903L704.383 70.7903L705.968 72.0097L713.968 61.6097L712.383 60.3903ZM704.469 72.1071C711.569 79.2075 719.529 81.7 726.776 81.7V79.7C720.022 79.7 712.583 77.3925 705.883 70.6929L704.469 72.1071Z" transform="translate(129 415)" fill="black"/>
<path d="M11.904 154H81.216C113.28 154 132.096 139.984 132.096 116.944V116.56C132.096 98.32 121.728 89.104 105.408 83.728C117.312 78.544 126.144 69.328 126.144 53.776V53.392C126.144 44.176 122.88 37.072 117.504 31.696C109.632 23.824 97.728 19.6 80.832 19.6H11.904V154ZM48.192 73.168V49.552H72.384C83.52 49.552 89.28 53.776 89.28 61.072V61.456C89.28 69.328 82.944 73.168 71.616 73.168H48.192ZM48.192 124.048V99.28H76.608C89.088 99.28 94.848 104.08 94.848 111.376V111.76C94.848 119.632 88.32 124.048 76.992 124.048H48.192ZM138.402 154H177.57L187.17 130H239.01L248.802 154H288.738L231.522 18.64H195.618L138.402 154ZM198.114 101.008L213.282 62.8L228.258 101.008H198.114ZM301.779 154H339.027V113.296H355.347L382.419 154H425.427L393.363 107.152C410.067 100.048 421.011 86.416 421.011 65.872V65.488C421.011 52.24 416.979 41.872 409.107 34.192C400.083 24.976 385.875 19.6 365.331 19.6H301.779V154ZM339.027 84.112V51.856H363.411C375.891 51.856 383.571 57.232 383.571 67.792V68.176C383.571 77.968 376.275 84.112 363.603 84.112H339.027ZM439.779 154H477.027V113.296H493.347L520.419 154H563.427L531.363 107.152C548.067 100.048 559.011 86.416 559.011 65.872V65.488C559.011 52.24 554.979 41.872 547.107 34.192C538.083 24.976 523.875 19.6 503.331 19.6H439.779V154ZM477.027 84.112V51.856H501.411C513.891 51.856 521.571 57.232 521.571 67.792V68.176C521.571 77.968 514.275 84.112 501.603 84.112H477.027ZM611.688 154H649.128V103.12L700.2 19.6H658.536L630.696 68.56L603.048 19.6H560.616L611.688 103.696V154ZM707.238 89.104C731.238 88.336 746.598 78.544 746.598 50.128V19.6H708.774V57.04H723.366C723.942 67.408 717.03 73.744 704.166 75.088L707.238 89.104ZM819.017 156.304C851.657 156.304 873.353 139.984 873.353 112.528V112.144C873.353 86.992 854.152 77.008 823.24 70.288C804.616 66.064 800.009 63.376 800.009 57.232V56.848C800.009 52.048 804.425 48.208 813.448 48.208C825.353 48.208 838.792 52.816 851.081 61.456L869.705 35.152C855.112 23.44 837.257 17.296 814.408 17.296C782.152 17.296 762.376 35.344 762.376 60.304V60.688C762.376 88.336 784.457 96.4 813.064 102.928C831.304 107.152 835.72 110.224 835.72 115.792V116.176C835.72 121.936 830.344 125.392 820.361 125.392C804.809 125.392 790.025 119.824 776.776 109.264L756.04 134.032C772.552 148.816 795.208 156.304 819.017 156.304Z" transform="translate(70 226)" fill="#AA1111"/>
<path d="M11.904 154H9.904V156H11.904V154ZM105.408 83.728L104.609 81.8943L99.8031 83.9874L104.782 85.6276L105.408 83.728ZM117.504 31.696L118.918 30.2818L118.918 30.2818L117.504 31.696ZM11.904 19.6V17.6H9.904V19.6H11.904ZM48.192 73.168H46.192V75.168H48.192V73.168ZM48.192 49.552V47.552H46.192V49.552H48.192ZM48.192 124.048H46.192V126.048H48.192V124.048ZM48.192 99.28V97.28H46.192V99.28H48.192ZM11.904 156H81.216V152H11.904V156ZM81.216 156C97.5046 156 110.692 152.445 119.862 145.725C129.107 138.951 134.096 129.078 134.096 116.944H130.096C130.096 127.85 125.677 136.505 117.498 142.499C109.244 148.547 96.9914 152 81.216 152V156ZM134.096 116.944V116.56H130.096V116.944H134.096ZM134.096 116.56C134.096 107.027 131.372 99.671 126.372 93.9977C121.415 88.3718 114.371 84.5749 106.034 81.8284L104.782 85.6276C112.765 88.2571 119.065 91.7562 123.372 96.6423C127.636 101.481 130.096 107.853 130.096 116.56H134.096ZM106.207 85.5617C112.382 82.8726 117.88 79.0864 121.836 73.845C125.811 68.5793 128.144 61.9577 128.144 53.776H124.144C124.144 61.1463 122.061 66.9087 118.644 71.435C115.208 75.9856 110.338 79.3994 104.609 81.8943L106.207 85.5617ZM128.144 53.776V53.392H124.144V53.776H128.144ZM128.144 53.392C128.144 43.6477 124.671 36.0344 118.918 30.2818L116.09 33.1102C121.089 38.1096 124.144 44.7043 124.144 53.392H128.144ZM118.918 30.2818C110.543 21.9064 98.0443 17.6 80.832 17.6V21.6C97.4117 21.6 108.721 25.7416 116.09 33.1102L118.918 30.2818ZM80.832 17.6H11.904V21.6H80.832V17.6ZM9.904 19.6V154H13.904V19.6H9.904ZM50.192 73.168V49.552H46.192V73.168H50.192ZM48.192 51.552H72.384V47.552H48.192V51.552ZM72.384 51.552C77.7479 51.552 81.5053 52.5774 83.8667 54.2184C86.1209 55.7848 87.28 58.0289 87.28 61.072H91.28C91.28 56.8191 89.5591 53.3032 86.1493 50.9336C82.8467 48.6386 78.1561 47.552 72.384 47.552V51.552ZM87.28 61.072V61.456H91.28V61.072H87.28ZM87.28 61.456C87.28 64.7572 86.0042 67.0331 83.6084 68.5856C81.0764 70.2263 77.112 71.168 71.616 71.168V75.168C77.448 75.168 82.3156 74.1897 85.7836 71.9424C89.3878 69.6069 91.28 66.0268 91.28 61.456H87.28ZM71.616 71.168H48.192V75.168H71.616V71.168ZM50.192 124.048V99.28H46.192V124.048H50.192ZM48.192 101.28H76.608V97.28H48.192V101.28ZM76.608 101.28C82.6386 101.28 86.7283 102.447 89.2567 104.227C91.6843 105.936 92.848 108.328 92.848 111.376H96.848C96.848 107.128 95.1317 103.472 91.5593 100.957C88.0876 98.5126 83.0574 97.28 76.608 97.28V101.28ZM92.848 111.376V111.76H96.848V111.376H92.848ZM92.848 111.76C92.848 115.056 91.5252 117.502 89.0377 119.206C86.4499 120.979 82.4409 122.048 76.992 122.048V126.048C82.8711 126.048 87.7901 124.909 91.2983 122.506C94.9068 120.034 96.848 116.336 96.848 111.76H92.848ZM76.992 122.048H48.192V126.048H76.992V122.048ZM138.402 154L136.56 153.221L135.385 156H138.402V154ZM177.57 154V156H178.924L179.427 154.743L177.57 154ZM187.17 130V128H185.816L185.313 129.257L187.17 130ZM239.01 130L240.862 129.244L240.354 128H239.01V130ZM248.802 154L246.95 154.756L247.458 156H248.802V154ZM288.738 154V156H291.755L290.58 153.221L288.738 154ZM231.522 18.64L233.364 17.8613L232.848 16.64H231.522V18.64ZM195.618 18.64V16.64H194.292L193.776 17.8613L195.618 18.64ZM198.114 101.008L196.255 100.27L195.168 103.008H198.114V101.008ZM213.282 62.8L215.144 62.0701L213.294 57.3497L211.423 62.0621L213.282 62.8ZM228.258 101.008V103.008H231.19L230.12 100.278L228.258 101.008ZM138.402 156H177.57V152H138.402V156ZM179.427 154.743L189.027 130.743L185.313 129.257L175.713 153.257L179.427 154.743ZM187.17 132H239.01V128H187.17V132ZM237.158 130.756L246.95 154.756L250.654 153.244L240.862 129.244L237.158 130.756ZM248.802 156H288.738V152H248.802V156ZM290.58 153.221L233.364 17.8613L229.68 19.4187L286.896 154.779L290.58 153.221ZM231.522 16.64H195.618V20.64H231.522V16.64ZM193.776 17.8613L136.56 153.221L140.244 154.779L197.46 19.4187L193.776 17.8613ZM199.973 101.746L215.141 63.5379L211.423 62.0621L196.255 100.27L199.973 101.746ZM211.42 63.5299L226.396 101.738L230.12 100.278L215.144 62.0701L211.42 63.5299ZM228.258 99.008H198.114V103.008H228.258V99.008ZM301.779 154H299.779V156H301.779V154ZM339.027 154V156H341.027V154H339.027ZM339.027 113.296V111.296H337.027V113.296H339.027ZM355.347 113.296L357.012 112.188L356.419 111.296H355.347V113.296ZM382.419 154L380.754 155.108L381.347 156H382.419V154ZM425.427 154V156H429.219L427.077 152.87L425.427 154ZM393.363 107.152L392.58 105.312L390.334 106.267L391.713 108.282L393.363 107.152ZM409.107 34.192L407.678 35.5912L407.694 35.6076L407.71 35.6236L409.107 34.192ZM301.779 19.6V17.6H299.779V19.6H301.779ZM339.027 84.112H337.027V86.112H339.027V84.112ZM339.027 51.856V49.856H337.027V51.856H339.027ZM301.779 156H339.027V152H301.779V156ZM341.027 154V113.296H337.027V154H341.027ZM339.027 115.296H355.347V111.296H339.027V115.296ZM353.682 114.404L380.754 155.108L384.084 152.892L357.012 112.188L353.682 114.404ZM382.419 156H425.427V152H382.419V156ZM427.077 152.87L395.013 106.022L391.713 108.282L423.777 155.13L427.077 152.87ZM394.146 108.992C411.503 101.611 423.011 87.3065 423.011 65.872H419.011C419.011 85.5255 408.631 98.4853 392.58 105.312L394.146 108.992ZM423.011 65.872V65.488H419.011V65.872H423.011ZM423.011 65.488C423.011 51.802 418.828 40.8819 410.504 32.7604L407.71 35.6236C415.13 42.8621 419.011 52.6781 419.011 65.488H423.011ZM410.536 32.7927C401.012 23.0664 386.206 17.6 365.331 17.6V21.6C385.544 21.6 399.154 26.8856 407.678 35.5912L410.536 32.7927ZM365.331 17.6H301.779V21.6H365.331V17.6ZM299.779 19.6V154H303.779V19.6H299.779ZM341.027 84.112V51.856H337.027V84.112H341.027ZM339.027 53.856H363.411V49.856H339.027V53.856ZM363.411 53.856C369.404 53.856 373.951 55.1525 376.955 57.4521C379.878 59.6892 381.571 63.0504 381.571 67.792H385.571C385.571 61.9736 383.424 57.3668 379.387 54.2759C375.431 51.2475 369.898 49.856 363.411 49.856V53.856ZM381.571 67.792V68.176H385.571V67.792H381.571ZM381.571 68.176C381.571 72.5315 379.973 75.9194 377.08 78.2618C374.136 80.6462 369.642 82.112 363.603 82.112V86.112C370.236 86.112 375.726 84.5058 379.598 81.3702C383.521 78.1926 385.571 73.6125 385.571 68.176H381.571ZM363.603 82.112H339.027V86.112H363.603V82.112ZM439.779 154H437.779V156H439.779V154ZM477.027 154V156H479.027V154H477.027ZM477.027 113.296V111.296H475.027V113.296H477.027ZM493.347 113.296L495.012 112.188L494.419 111.296H493.347V113.296ZM520.419 154L518.754 155.108L519.347 156H520.419V154ZM563.427 154V156H567.219L565.077 152.87L563.427 154ZM531.363 107.152L530.58 105.312L528.334 106.267L529.713 108.282L531.363 107.152ZM547.107 34.192L545.678 35.5912L545.694 35.6076L545.71 35.6236L547.107 34.192ZM439.779 19.6V17.6H437.779V19.6H439.779ZM477.027 84.112H475.027V86.112H477.027V84.112ZM477.027 51.856V49.856H475.027V51.856H477.027ZM439.779 156H477.027V152H439.779V156ZM479.027 154V113.296H475.027V154H479.027ZM477.027 115.296H493.347V111.296H477.027V115.296ZM491.682 114.404L518.754 155.108L522.084 152.892L495.012 112.188L491.682 114.404ZM520.419 156H563.427V152H520.419V156ZM565.077 152.87L533.013 106.022L529.713 108.282L561.777 155.13L565.077 152.87ZM532.146 108.992C549.503 101.611 561.011 87.3065 561.011 65.872H557.011C557.011 85.5255 546.631 98.4853 530.58 105.312L532.146 108.992ZM561.011 65.872V65.488H557.011V65.872H561.011ZM561.011 65.488C561.011 51.802 556.828 40.8819 548.504 32.7604L545.71 35.6236C553.13 42.8621 557.011 52.6781 557.011 65.488H561.011ZM548.536 32.7927C539.012 23.0664 524.206 17.6 503.331 17.6V21.6C523.544 21.6 537.154 26.8856 545.678 35.5912L548.536 32.7927ZM503.331 17.6H439.779V21.6H503.331V17.6ZM437.779 19.6V154H441.779V19.6H437.779ZM479.027 84.112V51.856H475.027V84.112H479.027ZM477.027 53.856H501.411V49.856H477.027V53.856ZM501.411 53.856C507.404 53.856 511.951 55.1525 514.955 57.4521C517.878 59.6892 519.571 63.0504 519.571 67.792H523.571C523.571 61.9736 521.424 57.3668 517.387 54.2759C513.431 51.2475 507.898 49.856 501.411 49.856V53.856ZM519.571 67.792V68.176H523.571V67.792H519.571ZM519.571 68.176C519.571 72.5315 517.973 75.9194 515.08 78.2618C512.136 80.6462 507.642 82.112 501.603 82.112V86.112C508.236 86.112 513.726 84.5058 517.598 81.3702C521.521 78.1926 523.571 73.6125 523.571 68.176H519.571ZM501.603 82.112H477.027V86.112H501.603V82.112ZM611.688 154H609.688V156H611.688V154ZM649.128 154V156H651.128V154H649.128ZM649.128 103.12L647.422 102.077L647.128 102.557V103.12H649.128ZM700.2 19.6L701.906 20.6434L703.767 17.6H700.2V19.6ZM658.536 19.6V17.6H657.373L656.797 18.6114L658.536 19.6ZM630.696 68.56L628.954 69.5434L630.69 72.6167L632.435 69.5486L630.696 68.56ZM603.048 19.6L604.79 18.6166L604.215 17.6H603.048V19.6ZM560.616 19.6V17.6H557.061L558.907 20.6382L560.616 19.6ZM611.688 103.696H613.688V103.136L613.397 102.658L611.688 103.696ZM611.688 156H649.128V152H611.688V156ZM651.128 154V103.12H647.128V154H651.128ZM650.834 104.163L701.906 20.6434L698.494 18.5566L647.422 102.077L650.834 104.163ZM700.2 17.6H658.536V21.6H700.2V17.6ZM656.797 18.6114L628.957 67.5714L632.435 69.5486L660.275 20.5886L656.797 18.6114ZM632.438 67.5766L604.79 18.6166L601.306 20.5834L628.954 69.5434L632.438 67.5766ZM603.048 17.6H560.616V21.6H603.048V17.6ZM558.907 20.6382L609.979 104.734L613.397 102.658L562.325 18.5618L558.907 20.6382ZM609.688 103.696V154H613.688V103.696H609.688ZM707.238 89.104L705.284 89.5322L705.64 91.1561L707.302 91.103L707.238 89.104ZM746.598 19.6H748.598V17.6H746.598V19.6ZM708.774 19.6V17.6H706.774V19.6H708.774ZM708.774 57.04H706.774V59.04H708.774V57.04ZM723.366 57.04L725.363 56.9291L725.258 55.04H723.366V57.04ZM704.166 75.088L703.958 73.0988L701.733 73.3313L702.212 75.5162L704.166 75.088ZM707.302 91.103C719.506 90.7124 729.902 88.0244 737.249 81.4771C744.652 74.8788 748.598 64.6914 748.598 50.128H744.598C744.598 63.9806 740.864 72.8972 734.587 78.4909C728.254 84.1355 718.97 86.7276 707.174 87.105L707.302 91.103ZM748.598 50.128V19.6H744.598V50.128H748.598ZM746.598 17.6H708.774V21.6H746.598V17.6ZM706.774 19.6V57.04H710.774V19.6H706.774ZM708.774 59.04H723.366V55.04H708.774V59.04ZM721.369 57.1509C721.629 61.8254 720.215 65.3961 717.441 67.9862C714.606 70.6336 710.138 72.4532 703.958 73.0988L704.374 77.0772C711.058 76.3788 716.478 74.3584 720.171 70.9098C723.925 67.4039 725.679 62.6226 725.363 56.9291L721.369 57.1509ZM702.212 75.5162L705.284 89.5322L709.192 88.6758L706.12 74.6598L702.212 75.5162ZM823.24 70.288L822.798 72.2385L822.807 72.2404L822.816 72.2424L823.24 70.288ZM851.081 61.456L849.93 63.0921L851.561 64.2387L852.713 62.6117L851.081 61.456ZM869.705 35.152L871.337 36.3077L872.425 34.7709L870.956 33.5923L869.705 35.152ZM813.064 102.928L813.516 100.98L813.509 100.978L813.064 102.928ZM776.776 109.264L778.023 107.7L776.496 106.483L775.243 107.98L776.776 109.264ZM756.04 134.032L754.507 132.748L753.265 134.232L754.706 135.522L756.04 134.032ZM819.017 158.304C835.645 158.304 849.711 154.149 859.665 146.281C869.672 138.371 875.353 126.838 875.353 112.528H871.353C871.353 125.674 866.185 136.029 857.184 143.143C848.13 150.299 835.028 154.304 819.017 154.304V158.304ZM875.353 112.528V112.144H871.353V112.528H875.353ZM875.353 112.144C875.353 98.9427 870.259 89.5631 861.086 82.7024C852.059 75.9508 839.171 71.7045 823.665 68.3336L822.816 72.2424C838.222 75.5915 850.39 79.6972 858.691 85.9056C866.846 92.0049 871.353 100.193 871.353 112.144H875.353ZM823.683 68.3375C814.336 66.2175 808.811 64.541 805.625 62.7391C804.075 61.8626 803.217 61.0299 802.726 60.2264C802.244 59.4395 802.009 58.5078 802.009 57.232H798.009C798.009 59.0282 798.349 60.7365 799.313 62.3136C800.268 63.8741 801.726 65.1294 803.656 66.2209C807.43 68.355 813.521 70.1345 822.798 72.2385L823.683 68.3375ZM802.009 57.232V56.848H798.009V57.232H802.009ZM802.009 56.848C802.009 55.1363 802.764 53.5737 804.49 52.3673C806.277 51.1185 809.189 50.208 813.448 50.208V46.208C808.684 46.208 804.876 47.2175 802.199 49.0887C799.461 51.0023 798.009 53.7597 798.009 56.848H802.009ZM813.448 50.208C824.861 50.208 837.907 54.6385 849.93 63.0921L852.231 59.8199C839.678 50.9935 825.844 46.208 813.448 46.208V50.208ZM852.713 62.6117L871.337 36.3077L868.072 33.9963L849.448 60.3003L852.713 62.6117ZM870.956 33.5923C855.964 21.559 837.65 15.296 814.408 15.296V19.296C836.863 19.296 854.261 25.321 868.453 36.7117L870.956 33.5923ZM814.408 15.296C797.917 15.296 784.415 19.9116 775.001 27.9163C765.561 35.9425 760.376 47.2596 760.376 60.304H764.376C764.376 48.3885 769.08 38.2015 777.592 30.9637C786.13 23.7044 798.644 19.296 814.408 19.296V15.296ZM760.376 60.304V60.688H764.376V60.304H760.376ZM760.376 60.688C760.376 75.1827 766.231 84.7197 775.855 91.3732C785.304 97.9052 798.33 101.617 812.62 104.878L813.509 100.978C799.191 97.7109 786.873 94.1268 778.13 88.0828C769.562 82.1603 764.376 73.8413 764.376 60.688H760.376ZM812.613 104.876C821.743 106.991 827.129 108.761 830.218 110.58C831.727 111.468 832.565 112.299 833.042 113.074C833.505 113.828 833.72 114.681 833.72 115.792H837.72C837.72 114.119 837.384 112.5 836.449 110.98C835.528 109.481 834.122 108.236 832.247 107.132C828.568 104.967 822.626 103.089 813.516 100.98L812.613 104.876ZM833.72 115.792V116.176H837.72V115.792H833.72ZM833.72 116.176C833.72 118.311 832.781 119.991 830.742 121.237C828.591 122.551 825.17 123.392 820.361 123.392V127.392C825.535 127.392 829.794 126.505 832.827 124.651C835.972 122.729 837.72 119.801 837.72 116.176H833.72ZM820.361 123.392C805.315 123.392 790.961 118.013 778.023 107.7L775.53 110.828C789.088 121.635 804.302 127.392 820.361 127.392V123.392ZM775.243 107.98L754.507 132.748L757.574 135.316L778.31 110.548L775.243 107.98ZM754.706 135.522C771.648 150.69 794.807 158.304 819.017 158.304V154.304C795.61 154.304 773.457 146.942 757.375 132.542L754.706 135.522Z" transform="translate(70 226)" fill="black"/>
<path d="M1.2207e-05 1.52588e-06H108.3V107.8H1.2207e-05V1.52588e-06Z" transform="translate(455.7 93.8514)" fill="#AA1111" stroke="#222222" stroke-width="2.0014"/>
<path d="M40.6 47.2L20.3 67.4L0 47.2L20.3 27L40.6 47.2ZM94.8 47.2L74.5 67.4L54.1 47.2L74.5 27L94.8 47.2ZM67.7 20.2L47.4 40.5L27.1 20.2L47.4 -1.52588e-06L67.7 20.2ZM67.7 74.2L47.4 94.4L27.1 74.2L47.4 53.9L67.7 74.2Z" transform="translate(462.5 100.551)" fill="white" stroke="#222222" stroke-width="2.0014"/>
<path d="M577.6 3.05176e-06H433.2M0 54H288.8H0ZM72.6 27H289.2H72.6ZM144.8 3.05176e-06H289.2H144.8ZM722.4 54H433.6H722.4ZM649.8 27H433.2H649.8Z" transform="translate(148.5 120.751)" stroke="#777777" stroke-width="5.0035"/>
</svg>
