<svg xmlns="http://www.w3.org/2000/svg" width="907.601" height="907.601"><path d="M754.367 28.339l-251.508 251.51L629.8 406.791l251.51-251.509c35.054-35.054 35.054-91.888 0-126.942-35.055-35.054-91.89-35.054-126.943-.001zM103.772 898.43a24.24 24.24 0 0 0 17.195 7.122 24.242 24.242 0 0 0 17.195-7.122l152.345-152.345-35.354-35.355-134.186 134.185-64.079-64.078 49.724-79.992c1.997 2.457 4.921 4.226 8.517 4.644l27.221 3.164c3.929.457 7.85-.908 10.647-3.704l48.186-48.186-41.42-41.421-2.727-2.728-2.753-2.753a185.639 185.639 0 0 1-27.841-35.625L3.665 771.749c-5.966 9.598-4.534 22.041 3.457 30.031l96.65 96.65zM141.584 549.876c7.478 15.133 17.486 29.331 30.039 41.96.114.114.223.232.338.347l46.901 46.901 89.323 89.322 10.182 10.183c5.688 5.687 13.142 8.53 20.596 8.53s14.909-2.844 20.597-8.53l262.746-262.747c11.375-11.375 11.375-29.818 0-41.193l-10.182-10.181L485.18 297.525l-9.281-9.282c-18.045-18.046-39.327-30.876-61.974-38.514-2.113-.713-.27-38.251-.011-42.572 1.84-30.762-24.272-49.087-43.777-68.591l-40.338-40.338c-5.961-5.961-13.916-8.942-21.871-8.942-9.79 0-19.579 4.515-25.653 13.543-8.341 12.399-6.278 29.081 4.289 39.647l65.271 65.271.187 33.915c-37.42 2.458-74.143 17.979-102.742 46.58l-73.755 73.755a31.5 31.5 0 0 0-11.969-2.351c-7.952 0-15.904 2.979-21.863 8.938l-34.123 34.123c-11.922 11.922-11.922 31.819 0 43.742a30.093 30.093 0 0 0 2.793 2.456c.755.97 1.569 1.906 2.456 2.793l12.854 12.855c-2.591 29.034 2.721 58.632 15.911 85.323zm285.496 49.32l-60.125 60.125a24.925 24.925 0 0 1-17.678 7.322 24.925 24.925 0 0 1-17.678-7.322c-9.764-9.763-9.764-25.592 0-35.354l60.125-60.125c9.764-9.764 25.592-9.764 35.354 0 9.766 9.762 9.766 25.591.002 35.354zm-171.526-51.275l60.125-60.125c9.765-9.764 25.593-9.764 35.355 0 9.763 9.763 9.763 25.592 0 35.354l-60.125 60.125a24.925 24.925 0 0 1-17.678 7.322 24.925 24.925 0 0 1-17.678-7.322c-9.762-9.762-9.762-25.591.001-35.354z"/></svg>