<svg width="233.914" height="158.615" style="isolation:isolate" xmlns="http://www.w3.org/2000/svg"><path fill="none" d="M0 0h233.914v158.615H0z"/><g clip-path="url(#_clipPath_JuL4aG1jN4dhL1PSIw5mooSbkd6O4rRe)"><path d="M22.129 151.921a2.537 2.537 0 0 0 2.537-2.536v-.126H14.459v-5.845h18.603v10.528a4.672 4.672 0 0 1-4.671 4.673H4.672A4.672 4.672 0 0 1 0 153.942l.01-16.914a4.67 4.67 0 0 1 4.673-4.67h23.708a4.67 4.67 0 0 1 4.671 4.67v4.337h-8.405a2.538 2.538 0 0 0-2.528-2.314H11.066a2.67 2.67 0 0 0-2.67 2.67v7.53a2.67 2.67 0 0 0 2.67 2.67h11.063z"/></g><g clip-path="url(#_clipPath_dv2rKlKC9XU1rw4TnTb0sNo8zzb2xTLr)"><path d="M133.338 132.358l-9.464 17.306-9.464-17.306h-10.004l14.358 26.254h10.219l14.359-26.254h-10.004z"/></g><g clip-path="url(#_clipPath_5cIzyvc72B1AP3sE41gYGJzpgHoPt9BX)"><path d="M188.417 151.822v-19.464h-9.247v26.254h26.256v-6.79h-17.009z"/></g><g clip-path="url(#_clipPath_ZzvKf6JZrg6yXdJBUCBR1PdAFUE3JXlI)"><path d="M173.993 139.148v-6.79h-29.659v26.254h29.659v-6.79h-20.412v-3.344h18.709v-5.989h-18.709v-3.341h20.412z"/></g><g clip-path="url(#_clipPath_CCOiUrkhhoTilofzbWV5oG5xv1HP9jIT)"><path d="M112.235 158.612l-14.358-26.254H87.658L73.3 158.612h10.003l9.465-17.306 2.767 5.062h-3.581l-3.896 7.141h11.383l2.791 5.103h10.003z"/></g><g clip-path="url(#_clipPath_csMg15l41cR7vU6RGiw3ISHcH54mXe6O)"><path d="M225.383 155.039h-.459v.606h.459c.212 0 .385-.059.385-.307 0-.247-.181-.299-.385-.299zm1.174 2.202h-.686l-.517-.919c-.074-.146-.117-.182-.285-.182h-.137v1.101h-.563v-2.742h1.006c.532 0 .956.256.956.832 0 .342-.168.62-.497.743l.723 1.167zm-1.175-3.309a1.963 1.963 0 0 0-1.967 1.966 1.97 1.97 0 0 0 1.967 1.966c1.09 0 1.965-.883 1.965-1.966a1.959 1.959 0 0 0-1.965-1.966zm0 4.599a2.633 2.633 0 0 1 0-5.265 2.634 2.634 0 0 1 0 5.265z"/></g><g clip-path="url(#_clipPath_25Nf7Qz2fFtbgvfDkJAgmhIZnwT1pYoO)"><path d="M70.454 155.266v-3.242c-.105-1.011-.823-2.712-2.524-2.712 1.701-.159 3.321-2.446 3.321-4.251 0 0 .054-4.253 0-7.655-.051-3.402-2.447-5.048-4.147-5.048H38.24v26.254h8.401v-18.71h13.608c1.221 0 1.7 1.116 1.7 1.702v1.698c0 .852-.85 1.759-1.7 1.759H48.393v7.599h11.111c.903 0 1.728 1.623 1.728 2.579.05 1.17.502 3.323.717 3.373h9.356c-.319-.424-.851-1.538-.851-3.346z"/></g><g clip-path="url(#_clipPath_m9hXuxoBLD67T2nnkDAJ8AsFgQRpZeOd)"><path d="M233.914 132.354h-10.458l-8.57 10.154-8.57-10.154h-10.458l14.405 17.067v9.191h9.247v-9.191l14.404-17.067z"/></g><g clip-path="url(#_clipPath_mDtHSaThOwcc85Ktcfdi89GGQFU0R9er)"><path d="M157.531 78.669h-.529v.695h.529c.243 0 .443-.066.443-.352 0-.283-.209-.343-.443-.343zm1.348 2.529h-.788l-.595-1.054c-.084-.168-.134-.21-.327-.21h-.158v1.264h-.646v-3.149h1.157c.611 0 1.097.294 1.097.956 0 .393-.192.711-.571.854l.831 1.339zm-1.35-3.801a2.257 2.257 0 0 0-2.261 2.259 2.263 2.263 0 0 0 2.261 2.259 2.256 2.256 0 0 0 2.257-2.259 2.25 2.25 0 0 0-2.257-2.259zm0 5.284a3.024 3.024 0 1 1 0-6.049 3.018 3.018 0 0 1 3.023 3.024 3.024 3.024 0 0 1-3.023 3.025z"/></g><g clip-path="url(#_clipPath_3nsPyXYeOU2YxNo9sT5wqNdsK8GWlXn2)"><path d="M128.713 67.685A5.685 5.685 0 0 0 134.398 62v-.282h-22.879V48.616h41.701v23.601c0 5.785-4.69 10.473-10.475 10.473H89.577c-5.784 0-10.473-4.688-10.473-10.473l.023-37.915c0-5.784 4.689-10.473 10.473-10.473h53.145c5.785 0 10.475 4.689 10.475 10.473v9.719h-18.844a5.685 5.685 0 0 0-5.663-5.186H103.91a5.985 5.985 0 0 0-5.984 5.985v16.881a5.984 5.984 0 0 0 5.984 5.984h24.803zm41.826 12.325c0 7.139-5.787 12.926-12.926 12.926H75.096c-7.139 0-12.926-5.787-12.926-12.926V26.446c0-7.138 5.787-12.926 12.926-12.926h82.517c7.139 0 12.926 5.788 12.926 12.926V80.01zM159.698 0H73.011C59.152 0 47.917 11.234 47.917 25.093v56.27c0 13.859 11.235 25.093 25.094 25.093h86.687c13.858 0 25.093-11.234 25.093-25.093v-56.27C184.791 11.234 173.556 0 159.698 0z"/></g></svg>