<svg xmlns="http://www.w3.org/2000/svg" xmlns:xlink="http://www.w3.org/1999/xlink"><defs><clipPath id="_clipPath_DYbNoTB0Fuw66VedwdJwdVk6AmOILDWI"><rect width="268.652" height="85.704"/></clipPath></defs><g clip-path="url(#_clipPath_DYbNoTB0Fuw66VedwdJwdVk6AmOILDWI)"><path d=" M 130.115 85.137 L 159.029 85.137 L 161.171 69.609 L 170.274 69.609 L 172.415 85.137 L 201.866 85.137 L 186.337 0 L 147.249 0 L 130.115 85.137 Z  M 201.33 9.638 L 201.33 72.286 L 220.071 85.137 L 248.45 85.137 L 265.049 72.286 L 265.049 40.159 L 232.386 40.159 L 232.386 56.223 L 236.134 56.223 L 236.134 69.073 L 229.709 69.075 L 229.709 15.528 L 236.134 15.528 L 236.134 31.056 L 265.049 31.056 L 265.049 9.103 L 251.662 0 L 214.716 0 L 201.33 9.638 Z  M 0 11.244 L 0 38.552 L 17.492 51.967 L 33.733 51.939 L 33.733 69.609 L 28.379 69.609 L 28.379 57.829 L 0 57.829 L 0 74.428 L 14.457 85.137 L 48.19 85.137 L 63.183 74.428 L 63.183 47.12 L 43.864 32.675 L 28.379 32.722 L 28.379 16.599 L 33.733 16.599 L 33.733 27.308 L 63.183 27.308 L 63.183 11.244 L 46.049 0 L 15.528 0 L 0 11.244 Z  M 129.579 10.709 L 115.657 0 L 81.389 0 L 66.931 11.244 L 66.931 73.892 L 82.995 85.137 L 115.657 85.137 L 130.115 73.892 L 130.115 49.797 L 101.736 49.797 L 101.736 69.609 L 95.31 69.609 L 95.31 16.063 L 101.736 16.063 L 101.736 32.662 L 129.579 32.662 L 129.579 10.709 Z  M 165.99 26.237 L 164.919 26.237 L 162.242 53.01 L 169.738 53.01 L 165.99 26.237 Z " fill-rule="evenodd"/><path d=" M 266.382 83.625 C 266.382 83.64 266.358 83.652 266.312 83.659 C 266.223 83.674 265.999 83.681 265.641 83.681 C 265.334 83.681 265.126 83.674 265.016 83.659 C 264.964 83.652 264.936 83.646 264.928 83.642 C 264.914 83.634 264.897 83.612 264.879 83.572 C 264.844 83.481 264.793 83.344 264.725 83.164 C 264.633 82.931 264.491 82.586 264.295 82.129 C 264.253 82.037 264.156 81.986 264.004 81.978 C 264.075 81.983 263.954 81.985 263.643 81.985 C 263.607 81.985 263.591 82.044 263.591 82.164 C 263.591 82.323 263.605 82.56 263.634 82.877 C 263.664 83.192 263.678 83.431 263.678 83.589 C 263.678 83.629 263.667 83.652 263.647 83.659 C 263.613 83.662 263.581 83.664 263.548 83.667 C 263.41 83.676 263.195 83.681 262.902 83.681 C 262.567 83.681 262.366 83.674 262.298 83.659 C 262.23 83.645 262.197 83.609 262.197 83.55 C 262.197 83.293 262.209 82.904 262.233 82.385 C 262.258 81.865 262.27 81.476 262.27 81.216 C 262.27 80.226 262.248 79.452 262.203 78.898 L 262.199 78.848 C 262.198 78.809 262.234 78.783 262.311 78.768 C 262.386 78.754 262.745 78.739 263.383 78.726 C 263.816 78.717 264.161 78.712 264.419 78.712 C 264.952 78.712 265.388 78.833 265.725 79.074 C 266.106 79.345 266.297 79.738 266.297 80.249 C 266.297 80.591 266.248 80.864 266.15 81.068 C 266.051 81.272 265.87 81.47 265.605 81.662 C 265.552 81.699 265.525 81.735 265.525 81.767 C 265.525 81.765 265.668 82.058 265.953 82.648 C 266.24 83.238 266.382 83.564 266.382 83.625 Z  M 264.907 80.475 C 264.907 80.189 264.813 79.991 264.626 79.882 C 264.481 79.797 264.253 79.755 263.945 79.755 C 263.722 79.755 263.604 79.789 263.591 79.856 C 263.576 79.937 263.569 80.166 263.569 80.544 C 263.569 80.598 263.57 80.679 263.573 80.784 C 263.575 80.888 263.576 80.967 263.576 81.019 C 263.576 81.031 263.613 81.042 263.689 81.054 C 263.832 81.076 263.981 81.086 264.139 81.086 C 264.65 81.086 264.907 80.882 264.907 80.475 Z  M 264.234 76.869 C 266.674 76.869 268.652 78.847 268.652 81.286 C 268.652 83.725 266.674 85.704 264.234 85.704 C 261.795 85.704 259.817 83.725 259.817 81.286 C 259.817 78.847 261.795 76.869 264.234 76.869 Z  M 264.234 77.789 C 266.166 77.789 267.732 79.355 267.732 81.286 C 267.732 83.217 266.166 84.783 264.234 84.783 C 262.304 84.783 260.737 83.217 260.737 81.286 C 260.737 79.355 262.304 77.789 264.234 77.789 Z " fill-rule="evenodd"/></g></svg>