<svg xmlns="http://www.w3.org/2000/svg"><defs><clipPath id="a"><path d="M0 0h290.6v62.893H0z"/></clipPath></defs><g clip-path="url(#a)"><clipPath id="b"><path d="M0 0v62.893h290.6V0H0z"/></clipPath><g clip-path="url(#b)"><path d="M279.535 8.587V5.001h2.334c1.252 0 2.455.337 2.455 1.782 0 1.756-1.541 1.804-3.105 1.804h-1.684zm0 1.083h2.141l2.913 4.598h1.491L283 9.67c1.397-.24 2.599-1.058 2.599-2.887 0-1.854-1.034-2.865-3.369-2.865h-3.971v10.35h1.276V9.67zm1.973-8.255c4.332 0 7.557 3.393 7.557 7.678 0 4.284-3.225 7.678-7.557 7.678-4.333 0-7.558-3.394-7.558-7.678 0-4.285 3.225-7.678 7.558-7.678zm0-1.276c-5.055 0-8.953 3.923-8.953 8.954 0 5.03 3.898 8.954 8.953 8.954s8.953-3.924 8.953-8.954c0-5.031-3.898-8.954-8.953-8.954z"/></g><clipPath id="c"><path d="M0 0v62.893h290.6V0H0z"/></clipPath><g clip-path="url(#c)"><path d="M279.535 8.587V5.001h2.334c1.252 0 2.455.337 2.455 1.782 0 1.756-1.541 1.804-3.105 1.804h-1.684zm0 1.083h2.141l2.913 4.598h1.491L283 9.67c1.397-.24 2.599-1.058 2.599-2.887 0-1.854-1.034-2.865-3.369-2.865h-3.971v10.35h1.276V9.67zm1.973-8.255c4.332 0 7.557 3.393 7.557 7.678 0 4.284-3.225 7.678-7.557 7.678-4.333 0-7.558-3.394-7.558-7.678 0-4.285 3.225-7.678 7.558-7.678zm0-1.276c-5.055 0-8.953 3.923-8.953 8.954 0 5.03 3.898 8.954 8.953 8.954s8.953-3.924 8.953-8.954c0-5.031-3.898-8.954-8.953-8.954z"/></g><clipPath id="d"><path d="M0 0v62.893h290.6V0H0z"/></clipPath><g clip-path="url(#d)"><path d="M73.717 3.834H30.89c-6.117 0-10.172 3.918-12.076 9.15l-5.672 15.584c-2.525 6.938 1.038 12.066 7.875 12.066h22.318c.905 0 1.581.904 1.215 1.91l-1.427 3.921c-.392 1.075-1.709 1.911-2.606 1.911H5.431L.199 62.753h45.24c4.99 0 9.387-2.312 11.985-9.451l5.388-14.803c2.552-7.015-1.141-12.042-7.381-12.042H33.012c-1.241 0-1.681-.905-1.279-2.011l1.427-3.921c.476-1.307 1.458-2.313 3.054-2.313h32.271l5.232-14.378zm1.882 58.919h17.895l16.21-44.541h18.599l5.231-14.378H78.643l-5.232 14.378h18.398l-16.21 44.541zm42.023 0h17.995L157.06 3.834h-17.996l-21.442 58.919zm52.005-58.919h17.191l-7.575 20.813h21.414l7.574-20.813h17.694l-21.442 58.919H186.79l8.818-24.23h-21.413l-8.819 24.23h-17.192l21.443-58.919zm68.664 0h17.996l-16.21 44.542h38.102l-5.232 14.377h-56.098l21.442-58.919z"/></g><clipPath id="e"><path d="M0 0v62.893h290.6V0H0z"/></clipPath><g clip-path="url(#e)"><path d="M73.717 3.834H30.89c-6.117 0-10.172 3.918-12.076 9.15l-5.672 15.584c-2.525 6.938 1.038 12.066 7.875 12.066h22.318c.905 0 1.581.904 1.215 1.91l-1.427 3.921c-.392 1.075-1.709 1.911-2.606 1.911H5.431L.199 62.753h45.24c4.99 0 9.387-2.312 11.985-9.451l5.388-14.803c2.552-7.015-1.141-12.042-7.381-12.042H33.012c-1.241 0-1.681-.905-1.279-2.011l1.427-3.921c.476-1.307 1.458-2.313 3.054-2.313h32.271l5.232-14.378zm1.882 58.919h17.895l16.21-44.541h18.599l5.231-14.378H78.643l-5.232 14.378h18.398l-16.21 44.541zm42.023 0h17.995L157.06 3.834h-17.996l-21.442 58.919zm52.005-58.919h17.191l-7.575 20.813h21.414l7.574-20.813h17.694l-21.442 58.919H186.79l8.818-24.23h-21.413l-8.819 24.23h-17.192l21.443-58.919zm68.664 0h17.996l-16.21 44.542h38.102l-5.232 14.377h-56.098l21.442-58.919z"/></g></g></svg>