<svg xmlns="http://www.w3.org/2000/svg"><g data-name="Layer 2"><g data-name="Layer 1"><path class="cls-1" d="M106.72 8.21a7.54 7.54 0 1 1 7.54 7.55 7.54 7.54 0 0 1-7.54-7.55zM228.4 11.79v-3h-1.11v-.63h2.94v.64l-1.08-.01v3h-.75z"/><path class="cls-1" d="M234.11 8.16h1.08v3.64h-.71l.01-3.05-.69 3.05h-.73l-.68-3.05v3.04h-.7V8.16h1.1l.66 2.86.66-2.86zM107.68 17.13h13.82v28.59h-13.82z" data-name="LINE"/><path class="cls-1" d="M159.87 17.15v28.58a13.22 13.22 0 0 1-3.47 7.88 12.15 12.15 0 0 1-5.93 3.29c-3.66.35-7.34.55-11 .61a15.48 15.48 0 0 1-9-3.06 9.27 9.27 0 0 1-3.2-6.45h13.15a3.2 3.2 0 0 0 2.58 2.3 4.15 4.15 0 0 0 4.39-3.9 4.48 4.48 0 0 0 0-.66v-3.22a14.61 14.61 0 0 1-8.28 2.57 14.92 14.92 0 0 1-7.74-1.69 10.43 10.43 0 0 1-4.66-5.85 24 24 0 0 1-.71-10.37 11.87 11.87 0 0 1 5.39-9 16.44 16.44 0 0 1 8.84-1.86 15.1 15.1 0 0 1 7.17 2.61v-1.78zm-13.54 13.69c0-5-1.45-6.73-3.23-6.73s-3.23 1.4-3.23 6.73c0 5.8 1.45 6.73 3.23 6.73s3.23-.92 3.23-6.73z"/><path class="cls-1" d="M183.51 24.5a2.87 2.87 0 0 0-2.23-.21 2.12 2.12 0 0 0-1.28 1.33 4.89 4.89 0 0 0-.31 1.55v18.58H166V4.17h13.7v15.61a13.94 13.94 0 0 1 8.62-3.25 12.72 12.72 0 0 1 4.09.4 7.67 7.67 0 0 1 5.15 4.26 20.85 20.85 0 0 1 .94 7v17.6h-13.41V27.84a4.12 4.12 0 0 0-1.58-3.34zM62.18 17.1l-3.5 18.06-4.5-18.06H41.51L37 35.14l-3.49-18.06H21.87L27 45.66h16.4l4.45-18.45 4.41 18.45h16.38l3.8-20.8a37.28 37.28 0 1 1-3.81-7.79zM207.28 39.81V25.48h-4.21v-8.3h4.32v-4.72L221 8v9.14h5.69v8.3h-5.71v8.66a5.85 5.85 0 0 0 .24 2.1 2.79 2.79 0 0 0 2.55 1.35 10 10 0 0 0 2.8-.46v8.51a43.89 43.89 0 0 1-9.24 1.13 13.28 13.28 0 0 1-6.6-1.23 7.22 7.22 0 0 1-3.45-5.69z" data-name="ARC"/><path class="cls-1" d="M99.36 16.73c-2.45 0-4.89 1.57-6.86 3.32v-2.93H78.7v28.6h13.8v-13c.94-6.71 6.57-5.51 6.57-5.51l3.36.69v-9.67c0-1.53-3.1-1.46-3.1-1.46"/></g></g></svg>