<svg xmlns="http://www.w3.org/2000/svg" xmlns:xlink="http://www.w3.org/1999/xlink"><g clip-path="url(#_clipPath_JuL4aG1jN4dhL1PSIw5mooSbkd6O4rRe)"><path d=" M 22.129 151.921 C 23.53 151.921 24.666 150.785 24.666 149.385 C 24.666 149.343 24.666 149.301 24.666 149.259 C 21.265 149.259 17.861 149.259 14.459 149.259 C 14.459 147.311 14.459 145.363 14.459 143.414 C 20.66 143.414 26.861 143.414 33.062 143.414 C 33.062 146.924 33.062 150.434 33.062 153.942 C 33.062 156.523 30.97 158.615 28.391 158.615 C 20.484 158.615 12.578 158.615 4.672 158.615 C 2.091 158.615 0 156.523 0 153.942 C 0.003 148.305 0.007 142.667 0.01 137.028 C 0.01 134.448 2.102 132.358 4.683 132.358 C 12.584 132.358 20.488 132.358 28.391 132.358 C 30.97 132.358 33.062 134.448 33.062 137.028 C 33.062 138.475 33.062 139.919 33.062 141.365 C 30.261 141.365 27.459 141.365 24.657 141.365 C 24.541 140.056 23.444 139.051 22.129 139.051 C 18.441 139.051 14.754 139.051 11.066 139.051 C 9.592 139.051 8.396 140.246 8.396 141.721 C 8.396 144.231 8.396 146.741 8.396 149.251 C 8.396 150.726 9.592 151.921 11.066 151.921 C 14.754 151.921 18.441 151.921 22.129 151.921 Z "/></g><clipPath id="_clipPath_dv2rKlKC9XU1rw4TnTb0sNo8zzb2xTLr"><path d=" M 0 0 L 0 158.615 L 233.914 158.615 L 233.914 0 L 0 0 Z " fill="rgb(255,255,255)"/></clipPath><g clip-path="url(#_clipPath_dv2rKlKC9XU1rw4TnTb0sNo8zzb2xTLr)"><path d=" M 133.338 132.358 L 123.874 149.664 L 114.41 132.358 L 104.406 132.358 L 118.764 158.612 L 128.983 158.612 L 143.342 132.358 L 133.338 132.358 Z "/></g><clipPath id="_clipPath_5cIzyvc72B1AP3sE41gYGJzpgHoPt9BX"><path d=" M 0 0 L 0 158.615 L 233.914 158.615 L 233.914 0 L 0 0 Z " fill="rgb(255,255,255)"/></clipPath><g clip-path="url(#_clipPath_5cIzyvc72B1AP3sE41gYGJzpgHoPt9BX)"><path d=" M 188.417 151.822 L 188.417 132.358 L 179.17 132.358 L 179.17 158.612 L 205.426 158.612 L 205.426 151.822 L 188.417 151.822 Z "/></g><clipPath id="_clipPath_ZzvKf6JZrg6yXdJBUCBR1PdAFUE3JXlI"><path d=" M 0 0 L 0 158.615 L 233.914 158.615 L 233.914 0 L 0 0 Z " fill="rgb(255,255,255)"/></clipPath><g clip-path="url(#_clipPath_ZzvKf6JZrg6yXdJBUCBR1PdAFUE3JXlI)"><path d=" M 173.993 139.148 L 173.993 132.358 L 144.334 132.358 L 144.334 158.612 L 173.993 158.612 L 173.993 151.822 L 153.581 151.822 L 153.581 148.478 L 172.29 148.478 L 172.29 142.489 L 153.581 142.489 L 153.581 139.148 L 173.993 139.148 Z "/></g><clipPath id="_clipPath_CCOiUrkhhoTilofzbWV5oG5xv1HP9jIT"><path d=" M 0 0 L 0 158.615 L 233.914 158.615 L 233.914 0 L 0 0 Z " fill="rgb(255,255,255)"/></clipPath><g clip-path="url(#_clipPath_CCOiUrkhhoTilofzbWV5oG5xv1HP9jIT)"><path d=" M 112.235 158.612 L 97.877 132.358 L 87.658 132.358 L 73.3 158.612 L 83.303 158.612 L 92.768 141.306 L 95.535 146.368 L 91.954 146.368 L 88.058 153.509 L 99.441 153.509 L 102.232 158.612 L 112.235 158.612 Z "/></g><clipPath id="_clipPath_csMg15l41cR7vU6RGiw3ISHcH54mXe6O"><path d=" M 0 0 L 0 158.615 L 233.914 158.615 L 233.914 0 L 0 0 Z " fill="rgb(255,255,255)"/></clipPath><g clip-path="url(#_clipPath_csMg15l41cR7vU6RGiw3ISHcH54mXe6O)"><path d=" M 225.383 155.039 L 224.924 155.039 L 224.924 155.645 L 225.383 155.645 C 225.595 155.645 225.768 155.586 225.768 155.338 C 225.768 155.091 225.587 155.039 225.383 155.039 Z  M 226.557 157.241 L 225.871 157.241 L 225.354 156.322 C 225.28 156.176 225.237 156.14 225.069 156.14 L 224.932 156.14 L 224.932 157.241 L 224.369 157.241 L 224.369 154.499 L 225.375 154.499 C 225.907 154.499 226.331 154.755 226.331 155.331 C 226.331 155.673 226.163 155.951 225.834 156.074 L 226.557 157.241 Z  M 225.382 153.932 C 224.297 153.932 223.415 154.806 223.415 155.898 C 223.415 156.981 224.297 157.864 225.382 157.864 C 226.472 157.864 227.347 156.981 227.347 155.898 C 227.347 154.806 226.472 153.932 225.382 153.932 Z  M 225.382 158.531 C 223.93 158.531 222.748 157.348 222.748 155.898 C 222.748 154.441 223.93 153.266 225.382 153.266 C 226.838 153.266 228.014 154.441 228.014 155.898 C 228.014 157.348 226.838 158.531 225.382 158.531 Z "/></g><clipPath id="_clipPath_25Nf7Qz2fFtbgvfDkJAgmhIZnwT1pYoO"><path d=" M 0 0 L 0 158.615 L 233.914 158.615 L 233.914 0 L 0 0 Z " fill="rgb(255,255,255)"/></clipPath><g clip-path="url(#_clipPath_25Nf7Qz2fFtbgvfDkJAgmhIZnwT1pYoO)"><path d=" M 70.454 155.266 L 70.454 152.024 C 70.349 151.013 69.631 149.312 67.93 149.312 C 69.631 149.153 71.251 146.866 71.251 145.061 C 71.251 145.061 71.305 140.808 71.251 137.406 C 71.2 134.004 68.804 132.358 67.104 132.358 L 38.24 132.358 L 38.24 158.612 L 46.641 158.612 L 46.641 139.902 L 60.249 139.902 C 61.47 139.902 61.949 141.018 61.949 141.604 L 61.949 143.302 C 61.949 144.154 61.099 145.061 60.249 145.061 L 48.393 145.061 L 48.393 152.66 L 59.504 152.66 C 60.407 152.66 61.232 154.283 61.232 155.239 C 61.282 156.409 61.734 158.562 61.949 158.612 C 66.557 158.612 71.305 158.612 71.305 158.612 C 70.986 158.188 70.454 157.074 70.454 155.266 Z " fill-rule="evenodd"/></g><clipPath id="_clipPath_m9hXuxoBLD67T2nnkDAJ8AsFgQRpZeOd"><path d=" M 0 0 L 0 158.615 L 233.914 158.615 L 233.914 0 L 0 0 Z " fill="rgb(255,255,255)"/></clipPath><g clip-path="url(#_clipPath_m9hXuxoBLD67T2nnkDAJ8AsFgQRpZeOd)"><path d=" M 233.914 132.354 L 223.456 132.354 L 214.886 142.508 L 206.316 132.354 L 195.858 132.354 L 210.263 149.421 L 210.263 158.612 L 219.51 158.612 L 219.51 149.421 L 233.914 132.354 Z "/></g><clipPath id="_clipPath_mDtHSaThOwcc85Ktcfdi89GGQFU0R9er"><path d=" M 0 0 L 0 158.615 L 233.914 158.615 L 233.914 0 L 0 0 Z " fill="rgb(255,255,255)"/></clipPath><g clip-path="url(#_clipPath_mDtHSaThOwcc85Ktcfdi89GGQFU0R9er)"><path d=" M 157.531 78.669 L 157.002 78.669 L 157.002 79.364 L 157.531 79.364 C 157.774 79.364 157.974 79.298 157.974 79.012 C 157.974 78.729 157.765 78.669 157.531 78.669 Z  M 158.879 81.198 L 158.091 81.198 L 157.496 80.144 C 157.412 79.976 157.362 79.934 157.169 79.934 L 157.011 79.934 L 157.011 81.198 L 156.365 81.198 L 156.365 78.049 L 157.522 78.049 C 158.133 78.049 158.619 78.343 158.619 79.005 C 158.619 79.398 158.427 79.716 158.048 79.859 L 158.879 81.198 Z  M 157.529 77.397 C 156.282 77.397 155.268 78.402 155.268 79.656 C 155.268 80.901 156.282 81.915 157.529 81.915 C 158.782 81.915 159.786 80.901 159.786 79.656 C 159.786 78.402 158.782 77.397 157.529 77.397 Z  M 157.529 82.681 C 155.861 82.681 154.503 81.322 154.503 79.656 C 154.503 77.981 155.861 76.632 157.529 76.632 C 159.203 76.632 160.552 77.981 160.552 79.656 C 160.552 81.322 159.203 82.681 157.529 82.681 Z "/></g><clipPath id="_clipPath_3nsPyXYeOU2YxNo9sT5wqNdsK8GWlXn2"><path d=" M 0 0 L 0 158.615 L 233.914 158.615 L 233.914 0 L 0 0 Z " fill="rgb(255,255,255)"/></clipPath><g clip-path="url(#_clipPath_3nsPyXYeOU2YxNo9sT5wqNdsK8GWlXn2)"><path d=" M 128.713 67.685 C 131.852 67.685 134.398 65.14 134.398 62 C 134.398 61.906 134.398 61.812 134.398 61.718 C 126.771 61.718 119.144 61.718 111.519 61.718 C 111.519 57.351 111.519 52.984 111.519 48.616 C 125.419 48.616 139.318 48.616 153.22 48.616 C 153.22 56.483 153.22 64.35 153.22 72.217 C 153.22 78.002 148.53 82.69 142.745 82.69 C 125.023 82.69 107.3 82.69 89.577 82.69 C 83.793 82.69 79.104 78.002 79.104 72.217 C 79.112 59.579 79.119 46.94 79.127 34.302 C 79.127 28.518 83.816 23.829 89.6 23.829 C 107.316 23.829 125.031 23.829 142.745 23.829 C 148.53 23.829 153.22 28.518 153.22 34.302 C 153.22 37.542 153.22 40.781 153.22 44.021 C 146.939 44.021 140.657 44.021 134.376 44.021 C 134.117 41.086 131.659 38.835 128.713 38.835 C 120.445 38.835 112.178 38.835 103.91 38.835 C 100.606 38.835 97.926 41.514 97.926 44.82 C 97.926 50.446 97.926 56.073 97.926 61.701 C 97.926 65.006 100.606 67.685 103.91 67.685 C 112.178 67.685 120.445 67.685 128.713 67.685 Z  M 170.539 80.01 C 170.539 87.149 164.752 92.936 157.613 92.936 C 130.107 92.936 102.602 92.936 75.096 92.936 C 67.957 92.936 62.17 87.149 62.17 80.01 C 62.17 62.155 62.17 44.301 62.17 26.446 C 62.17 19.308 67.957 13.52 75.096 13.52 C 102.602 13.52 130.107 13.52 157.613 13.52 C 164.752 13.52 170.539 19.308 170.539 26.446 C 170.539 44.301 170.539 62.155 170.539 80.01 Z  M 159.698 0 C 130.802 0 101.907 0 73.011 0 C 59.152 0 47.917 11.234 47.917 25.093 C 47.917 43.849 47.917 62.606 47.917 81.363 C 47.917 95.222 59.152 106.456 73.011 106.456 C 101.907 106.456 130.802 106.456 159.698 106.456 C 173.556 106.456 184.791 95.222 184.791 81.363 C 184.791 62.606 184.791 43.849 184.791 25.093 C 184.791 11.234 173.556 0 159.698 0 Z "/></g></svg>