<?xml version="1.0" encoding="iso-8859-1"?>
<!-- Generator: Adobe Illustrator 16.0.0, SVG Export Plug-In . SVG Version: 6.00 Build 0)  -->
<!DOCTYPE svg PUBLIC "-//W3C//DTD SVG 1.1//EN" "http://www.w3.org/Graphics/SVG/1.1/DTD/svg11.dtd">
<svg version="1.1" id="Capa_1" xmlns="http://www.w3.org/2000/svg" xmlns:xlink="http://www.w3.org/1999/xlink" x="0px" y="0px"
	 width="907.601px" height="907.601px" viewBox="0 0 907.601 907.601" style="enable-background:new 0 0 907.601 907.601;"
	 xml:space="preserve">
<g>
	<g>
		<path d="M754.367,28.339L502.859,279.849L629.8,406.791l251.51-251.509c35.054-35.054,35.054-91.888,0-126.942
			C846.255-6.714,789.42-6.714,754.367,28.339z"/>
		<path d="M103.772,898.43c4.748,4.748,10.971,7.122,17.195,7.122c6.223,0,12.447-2.374,17.195-7.122l152.345-152.345
			l-35.354-35.355L120.967,844.915l-64.079-64.078l49.724-79.992c1.997,2.457,4.921,4.226,8.517,4.644l27.221,3.164
			c3.929,0.457,7.85-0.908,10.647-3.704l48.186-48.186l-41.42-41.421l-2.727-2.728l-2.753-2.753
			c-10.821-10.82-20.129-22.8-27.841-35.625L3.665,771.749c-5.966,9.598-4.534,22.041,3.457,30.031L103.772,898.43z"/>
		<path d="M141.584,549.876c7.478,15.133,17.486,29.331,30.039,41.96c0.114,0.114,0.223,0.232,0.338,0.347l46.901,46.901
			l89.323,89.322l10.182,10.183c5.688,5.687,13.142,8.53,20.596,8.53s14.909-2.844,20.597-8.53l262.746-262.747
			c11.375-11.375,11.375-29.818,0-41.193l-10.182-10.181L485.18,297.525l-9.281-9.282c-18.045-18.046-39.327-30.876-61.974-38.514
			c-2.113-0.713-0.27-38.251-0.011-42.572c1.84-30.762-24.272-49.087-43.777-68.591c-13.445-13.446-26.892-26.892-40.338-40.338
			c-5.961-5.961-13.916-8.942-21.871-8.942c-9.79,0-19.579,4.515-25.653,13.543c-8.341,12.399-6.278,29.081,4.289,39.647
			l65.271,65.271c0.062,11.305,0.124,22.61,0.187,33.915c-37.42,2.458-74.143,17.979-102.742,46.58l-73.755,73.755
			c-3.811-1.567-7.889-2.351-11.969-2.351c-7.952,0-15.904,2.979-21.863,8.938c-0.441,0.44-34.123,34.123-34.123,34.123
			c-11.922,11.922-11.922,31.819,0,43.742c0.888,0.888,1.824,1.701,2.793,2.456c0.755,0.97,1.569,1.906,2.456,2.793l12.854,12.855
			C123.082,493.587,128.394,523.185,141.584,549.876z M427.08,599.196l-60.125,60.125c-4.882,4.881-11.28,7.322-17.678,7.322
			c-6.398,0-12.796-2.441-17.678-7.322c-9.764-9.763-9.764-25.592,0-35.354l60.125-60.125c9.764-9.764,25.592-9.764,35.354,0
			C436.844,573.604,436.844,589.433,427.08,599.196z M255.554,547.921l60.125-60.125c9.765-9.764,25.593-9.764,35.355,0
			c9.763,9.763,9.763,25.592,0,35.354l-60.125,60.125c-4.882,4.881-11.28,7.322-17.678,7.322c-6.398,0-12.796-2.441-17.678-7.322
			C245.791,573.513,245.791,557.684,255.554,547.921z"/>
	</g>
</g>
<g>
</g>
<g>
</g>
<g>
</g>
<g>
</g>
<g>
</g>
<g>
</g>
<g>
</g>
<g>
</g>
<g>
</g>
<g>
</g>
<g>
</g>
<g>
</g>
<g>
</g>
<g>
</g>
<g>
</g>
</svg>