<svg xmlns="http://www.w3.org/2000/svg" xmlns:xlink="http://www.w3.org/1999/xlink"><defs><clipPath id="_clipPath_KjARSRisZgwIAmoUd0jWe9hkH7iJJYHK"><rect width="290.6" height="62.893"/></clipPath></defs><g clip-path="url(#_clipPath_KjARSRisZgwIAmoUd0jWe9hkH7iJJYHK)"><clipPath id="_clipPath_P2SKech1ArEaigVOxwdo1oVzh3hTas0b"><path d=" M 0 0 L 0 62.893 L 290.6 62.893 L 290.6 0 L 0 0 Z "/></clipPath><g clip-path="url(#_clipPath_P2SKech1ArEaigVOxwdo1oVzh3hTas0b)"><path d=" M 279.535 8.587 L 279.535 5.001 L 281.869 5.001 C 283.121 5.001 284.324 5.338 284.324 6.783 C 284.324 8.539 282.783 8.587 281.219 8.587 L 279.535 8.587 L 279.535 8.587 Z  M 279.535 9.67 L 281.676 9.67 L 284.589 14.268 L 286.08 14.268 L 283 9.67 C 284.397 9.43 285.599 8.612 285.599 6.783 C 285.599 4.929 284.565 3.918 282.23 3.918 L 278.259 3.918 L 278.259 14.268 L 279.535 14.268 L 279.535 9.67 L 279.535 9.67 Z  M 281.508 1.415 C 285.84 1.415 289.065 4.808 289.065 9.093 C 289.065 13.377 285.84 16.771 281.508 16.771 C 277.175 16.771 273.95 13.377 273.95 9.093 C 273.95 4.808 277.175 1.415 281.508 1.415 L 281.508 1.415 Z  M 281.508 0.139 C 276.453 0.139 272.555 4.062 272.555 9.093 C 272.555 14.123 276.453 18.047 281.508 18.047 C 286.563 18.047 290.461 14.123 290.461 9.093 C 290.461 4.062 286.563 0.139 281.508 0.139 L 281.508 0.139 Z "/></g><clipPath id="_clipPath_EJgRqWVOYTwngIXXUwUjF9F2pANpXpJZ"><path d=" M 0 0 L 0 62.893 L 290.6 62.893 L 290.6 0 L 0 0 Z "/></clipPath><g clip-path="url(#_clipPath_EJgRqWVOYTwngIXXUwUjF9F2pANpXpJZ)"><path d=" M 279.535 8.587 L 279.535 5.001 L 281.869 5.001 C 283.121 5.001 284.324 5.338 284.324 6.783 C 284.324 8.539 282.783 8.587 281.219 8.587 L 279.535 8.587 L 279.535 8.587 Z  M 279.535 9.67 L 281.676 9.67 L 284.589 14.268 L 286.08 14.268 L 283 9.67 C 284.397 9.43 285.599 8.612 285.599 6.783 C 285.599 4.929 284.565 3.918 282.23 3.918 L 278.259 3.918 L 278.259 14.268 L 279.535 14.268 L 279.535 9.67 L 279.535 9.67 Z  M 281.508 1.415 C 285.84 1.415 289.065 4.808 289.065 9.093 C 289.065 13.377 285.84 16.771 281.508 16.771 C 277.175 16.771 273.95 13.377 273.95 9.093 C 273.95 4.808 277.175 1.415 281.508 1.415 L 281.508 1.415 Z  M 281.508 0.139 C 276.453 0.139 272.555 4.062 272.555 9.093 C 272.555 14.123 276.453 18.047 281.508 18.047 C 286.563 18.047 290.461 14.123 290.461 9.093 C 290.461 4.062 286.563 0.139 281.508 0.139 L 281.508 0.139 Z "/></g><clipPath id="_clipPath_HkfKVMhBL05v1vIO6pewpotPxjxTMtuw"><path d=" M 0 0 L 0 62.893 L 290.6 62.893 L 290.6 0 L 0 0 Z "/></clipPath><g clip-path="url(#_clipPath_HkfKVMhBL05v1vIO6pewpotPxjxTMtuw)"><path d=" M 73.717 3.834 L 30.89 3.834 C 24.773 3.834 20.718 7.752 18.814 12.984 L 13.142 28.568 C 10.617 35.506 14.18 40.634 21.017 40.634 L 43.335 40.634 C 44.24 40.634 44.916 41.538 44.55 42.544 L 43.123 46.465 C 42.731 47.54 41.414 48.376 40.517 48.376 L 5.431 48.376 L 0.199 62.753 L 45.439 62.753 C 50.429 62.753 54.826 60.441 57.424 53.302 L 62.812 38.499 C 65.364 31.484 61.671 26.457 55.431 26.457 L 33.012 26.457 C 31.771 26.457 31.331 25.552 31.733 24.446 L 33.16 20.525 C 33.636 19.218 34.618 18.212 36.214 18.212 L 68.485 18.212 L 73.717 3.834 L 73.717 3.834 Z  M 75.599 62.753 L 93.494 62.753 L 109.704 18.212 L 128.303 18.212 L 133.534 3.834 L 78.643 3.834 L 73.411 18.212 L 91.809 18.212 L 75.599 62.753 L 75.599 62.753 Z  M 117.622 62.753 L 135.617 62.753 L 157.06 3.834 L 139.064 3.834 L 117.622 62.753 L 117.622 62.753 Z  M 169.627 3.834 L 186.818 3.834 L 179.243 24.647 L 200.657 24.647 L 208.231 3.834 L 225.925 3.834 L 204.483 62.753 L 186.79 62.753 L 195.608 38.523 L 174.195 38.523 L 165.376 62.753 L 148.184 62.753 L 169.627 3.834 L 169.627 3.834 Z  M 238.291 3.834 L 256.287 3.834 L 240.077 48.376 L 278.179 48.376 L 272.947 62.753 L 216.849 62.753 L 238.291 3.834 L 238.291 3.834 Z "/></g><clipPath id="_clipPath_KcHxWbzXPXtjLrIl4qCrJjFQL2HS1H0U"><path d=" M 0 0 L 0 62.893 L 290.6 62.893 L 290.6 0 L 0 0 Z "/></clipPath><g clip-path="url(#_clipPath_KcHxWbzXPXtjLrIl4qCrJjFQL2HS1H0U)"><path d=" M 73.717 3.834 L 30.89 3.834 C 24.773 3.834 20.718 7.752 18.814 12.984 L 13.142 28.568 C 10.617 35.506 14.18 40.634 21.017 40.634 L 43.335 40.634 C 44.24 40.634 44.916 41.538 44.55 42.544 L 43.123 46.465 C 42.731 47.54 41.414 48.376 40.517 48.376 L 5.431 48.376 L 0.199 62.753 L 45.439 62.753 C 50.429 62.753 54.826 60.441 57.424 53.302 L 62.812 38.499 C 65.364 31.484 61.671 26.457 55.431 26.457 L 33.012 26.457 C 31.771 26.457 31.331 25.552 31.733 24.446 L 33.16 20.525 C 33.636 19.218 34.618 18.212 36.214 18.212 L 68.485 18.212 L 73.717 3.834 L 73.717 3.834 Z  M 75.599 62.753 L 93.494 62.753 L 109.704 18.212 L 128.303 18.212 L 133.534 3.834 L 78.643 3.834 L 73.411 18.212 L 91.809 18.212 L 75.599 62.753 L 75.599 62.753 Z  M 117.622 62.753 L 135.617 62.753 L 157.06 3.834 L 139.064 3.834 L 117.622 62.753 L 117.622 62.753 Z  M 169.627 3.834 L 186.818 3.834 L 179.243 24.647 L 200.657 24.647 L 208.231 3.834 L 225.925 3.834 L 204.483 62.753 L 186.79 62.753 L 195.608 38.523 L 174.195 38.523 L 165.376 62.753 L 148.184 62.753 L 169.627 3.834 L 169.627 3.834 Z  M 238.291 3.834 L 256.287 3.834 L 240.077 48.376 L 278.179 48.376 L 272.947 62.753 L 216.849 62.753 L 238.291 3.834 L 238.291 3.834 Z "/></g></g></svg>