<svg xmlns="http://www.w3.org/2000/svg" viewBox="0 0 266.547 266.547"><path d="M221.495 179.095l-38.971-45.53c-4.346-5.08-3.731-12.689 1.376-16.997l41.81-35.316c5.102-4.313 11.427-7.321 14.12-6.712 2.692.598 8.643-2.801 13.293-7.598l9.377-9.676c4.65-4.797 5.336-12.494 1.528-17.171-3.807-4.688-11.444-5.542-17.051-1.915l-11.27 7.288c-5.613 3.628-10.166 8.615-10.166 11.145 0 2.529-4.134 8.072-9.236 12.39l-42.398 35.903c-5.102 4.313-12.76 3.704-17.106-1.376l-12.619-14.74c-4.346-5.08-5.075-13.108-1.991-18.172 3.079-5.064 8.316-14.207 8.333-20.891.016-8.028-3.737-19.592-19.695-32.618C113.41 2.875 97.86.27 87.797.629c-6.679.234-8.42 6.315-4.166 11.471l21.267 25.77c4.253 5.156 4.117 13.402-.305 18.417l-.462.528c-4.417 5.009-12.619 11.901-18.319 15.398l-.218.131c-5.7 3.492-13.908 2.257-18.33-2.752L45.15 44.544c-4.422-5.009-10.699-4.248-11.977 2.312-1.561 7.974-1.773 19.782 4.145 34.255 2.529 6.184 7.974 15.626 12.184 20.815 8.137 10.03 16.111 13.619 22.311 14.593 6.598 1.039 16.056-2.578 21.065-4.601 5.015-2.023 12.363.288 16.562 5.493l12.57 15.583c4.194 5.2 5.047 11.58 1.904 14.239-3.144 2.665-9.154.653-13.424-4.487l-.577-.696c-4.264-5.14-9.083-9.312-10.753-9.312s-2.894 5.417-2.73 12.102l.087 3.753c.163 6.685-4.977 11.117-11.471 9.91-6.5-1.207-15.953 1.251-21.114 5.493L9.35 208.792C4.188 213.035 0 220.16 0 224.707c0 4.553 3.383 12.466 7.56 17.688l10.421 13.027c4.177 5.221 11.172 9.905 15.626 10.459 4.455.566 12.227-2.453 17.367-6.728l54.679-45.53c5.134-4.275 9.513-13.152 9.774-19.831l.06-1.523c.261-6.685 5.76-10.916 12.287-9.464l.577.12c6.527 1.452 11.814 1.05 11.814-.897s-2.725-6.821-6.097-10.878c-3.367-4.052-3.579-9.464-.479-12.086s9.018-.533 13.217 4.667l36.42 45.161c4.194 5.2 7.174 11.232 6.918 13.511a37.45 37.45 0 0 0-.234 4.15c0 21.169 17.155 38.318 38.318 38.318s38.318-17.149 38.318-38.318c0-16.605-10.568-30.714-25.346-36.023-6.281-2.265-15.359-6.355-19.705-11.435zm6.734 68.13c-11.417 0-20.668-9.257-20.668-20.674s9.252-20.674 20.668-20.674c11.422 0 20.674 9.257 20.674 20.674-.001 11.417-9.252 20.674-20.674 20.674z" fill="#010002"/></svg>