<svg xmlns="http://www.w3.org/2000/svg"><g id="Layer_2" data-name="Layer 2"><g id="Layer_1-2" data-name="Layer 1"><g id="CIRCLE"><path class="cls-1" d="M106.72,8.21a7.54,7.54,0,1,1,7.54,7.55,7.54,7.54,0,0,1-7.54-7.55Z"/></g><g id="LINE"><polygon class="cls-1" points="228.4 11.79 228.4 8.79 227.29 8.79 227.29 8.16 230.23 8.16 230.23 8.8 229.15 8.79 229.15 11.79 228.4 11.79"/></g><g id="LINE-2" data-name="LINE"><polygon class="cls-1" points="234.11 8.16 235.19 8.16 235.19 11.8 234.48 11.8 234.49 8.75 233.8 11.8 233.07 11.8 232.39 8.75 232.39 11.79 231.69 11.79 231.69 8.16 232.79 8.16 233.45 11.02 234.11 8.16"/></g><g id="LINE-3" data-name="LINE"><rect class="cls-1" x="107.68" y="17.13" width="13.82" height="28.59"/></g><g id="ARC"><path class="cls-1" d="M159.87,17.15l0,28.58a13.22,13.22,0,0,1-3.47,7.88,12.15,12.15,0,0,1-5.93,3.29c-3.66.35-7.34.55-11,.61a15.48,15.48,0,0,1-9-3.06A9.27,9.27,0,0,1,127.27,48h13.15A3.2,3.2,0,0,0,143,50.3a4.15,4.15,0,0,0,4.39-3.9,4.48,4.48,0,0,0,0-.66V42.52a14.61,14.61,0,0,1-8.28,2.57,14.92,14.92,0,0,1-7.74-1.69,10.43,10.43,0,0,1-4.66-5.85A24,24,0,0,1,126,27.18a11.87,11.87,0,0,1,5.39-9,16.44,16.44,0,0,1,8.84-1.86,15.1,15.1,0,0,1,7.17,2.61V17.15ZM146.33,30.84c0-5-1.45-6.73-3.23-6.73s-3.23,1.4-3.23,6.73c0,5.8,1.45,6.73,3.23,6.73S146.33,36.65,146.33,30.84Z"/></g><g id="ARC-2" data-name="ARC"><path class="cls-1" d="M183.51,24.5a2.87,2.87,0,0,0-2.23-.21A2.12,2.12,0,0,0,180,25.62a4.89,4.89,0,0,0-.31,1.55V45.75H166l0-41.58h13.7V19.78a13.94,13.94,0,0,1,8.62-3.25,12.72,12.72,0,0,1,4.09.4,7.67,7.67,0,0,1,5.15,4.26,20.85,20.85,0,0,1,.94,7v17.6H185.09V27.84A4.12,4.12,0,0,0,183.51,24.5Z"/></g><g id="ARC-3" data-name="ARC"><path class="cls-1" d="M62.18,17.1l-3.5,18.06-4.5-18.06H41.51L37,35.14,33.51,17.08H21.87L27,45.66H43.4l4.45-18.45,4.41,18.45H68.64l3.8-20.8a37.28,37.28,0,1,1-3.81-7.79Z"/></g><g id="ARC-4" data-name="ARC"><path class="cls-1" d="M207.28,39.81V25.48h-4.21v-8.3h4.32V12.46L221,8v9.14h5.69v8.3h-5.71V34.1a5.85,5.85,0,0,0,.24,2.1,2.79,2.79,0,0,0,2.55,1.35,10,10,0,0,0,2.8-.46v8.51a43.89,43.89,0,0,1-9.24,1.13,13.28,13.28,0,0,1-6.6-1.23A7.22,7.22,0,0,1,207.28,39.81Z"/></g><path class="cls-1" d="M99.36,16.73c-2.45,0-4.89,1.57-6.86,3.32V17.12H78.7V45.72H92.5v-13c.94-6.71,6.57-5.51,6.57-5.51l3.36.69,0-9.67c0-1.53-3.1-1.46-3.1-1.46"/><path class="cls-1" d="M73.75,17.12"/></g></g></svg>